<svg width="16" height="12" viewBox="0 0 16 12" fill="none" xmlns="http://www.w3.org/2000/svg">
<path d="M5.55629 8.76659L13.4408 0.882065C13.6269 0.695999 13.844 0.602966 14.0921 0.602966C14.3401 0.602966 14.5572 0.695999 14.7433 0.882065C14.9293 1.06813 15.0224 1.28908 15.0224 1.54492C15.0224 1.80076 14.9293 2.02172 14.7433 2.20778L6.20752 10.7668C6.02146 10.9529 5.80438 11.0459 5.55629 11.0459C5.30821 11.0459 5.09113 10.9529 4.90506 10.7668L0.904653 6.76639C0.718588 6.58032 0.629431 6.35937 0.637184 6.10353C0.644937 5.84769 0.741846 5.62674 0.927911 5.44067C1.11398 5.25461 1.33493 5.16157 1.59077 5.16157C1.84661 5.16157 2.06756 5.25461 2.25363 5.44067L5.55629 8.76659Z" fill="white"/>
</svg>
