<svg width="18" height="18" viewBox="0 0 18 18" fill="none" xmlns="http://www.w3.org/2000/svg">
<path d="M6.25 17.25C4.72222 17.25 3.42361 16.7153 2.35417 15.6458C1.28472 14.5764 0.75 13.2778 0.75 11.75V6.25C0.75 4.72222 1.28472 3.42361 2.35417 2.35417C3.42361 1.28472 4.72222 0.75 6.25 0.75H11.75C13.2778 0.75 14.5764 1.28472 15.6458 2.35417C16.7153 3.42361 17.25 4.72222 17.25 6.25V11.75C17.25 13.2778 16.7153 14.5764 15.6458 15.6458C14.5764 16.7153 13.2778 17.25 11.75 17.25H6.25ZM8.08333 12.6667L13.5833 7.16667L12.3 5.88333L8.08333 10.1L6.06667 8.08333L4.78333 9.36667L8.08333 12.6667Z" fill="url(#paint0_linear_1164_1906)"/>
<defs>
<linearGradient id="paint0_linear_1164_1906" x1="0.75" y1="23.5962" x2="23.1573" y2="18.0143" gradientUnits="userSpaceOnUse">
<stop stop-color="#58F1CC"/>
<stop offset="1" stop-color="#78B2D6"/>
</linearGradient>
</defs>
</svg>
