<svg width="53" height="51" viewBox="0 0 53 51" fill="none" xmlns="http://www.w3.org/2000/svg">
<path d="M0.428711 16.8965C0.664127 16.6909 0.871131 16.4325 1.14037 16.289C2.08745 15.7817 3.06023 15.3081 4.02895 14.8319C4.6635 14.5194 5.08156 14.6695 5.38192 15.3149C5.86719 16.372 6.34523 17.4319 6.81607 18.4944C7.06095 19.0477 6.91618 19.4712 6.43859 19.685C5.96099 19.8988 5.55239 19.7202 5.29668 19.1803C5.0821 18.6804 4.81976 18.2024 4.51332 17.753C4.06684 19.1966 3.57706 20.628 3.18335 22.0824C2.3391 25.2092 2.66652 28.3291 3.55406 31.3719C5.96099 39.6399 11.3593 45.0518 19.4798 47.7902C21.8949 48.6019 24.4046 48.9158 26.9536 48.8915C27.189 48.8915 27.4258 48.8766 27.6612 48.8847C28.1781 48.905 28.5028 49.2216 28.5082 49.6965C28.5153 49.807 28.4988 49.9177 28.4598 50.0213C28.4208 50.1249 28.3602 50.219 28.282 50.2973C28.2038 50.3757 28.1098 50.4365 28.0062 50.4756C27.9027 50.5148 27.792 50.5315 27.6815 50.5245C26.3285 50.5015 24.9756 50.5245 23.6402 50.3757C18.7465 49.8156 14.3467 47.9945 10.5273 44.8826C5.23174 40.5712 2.12488 35.0195 1.20667 28.2276C0.719599 24.6436 1.46508 21.291 2.70169 17.9843C2.77881 17.78 2.84917 17.5784 2.96552 17.2537C2.55963 17.4472 2.23763 17.596 1.91968 17.753C1.16337 18.125 0.904955 18.0668 0.431417 17.4025L0.428711 16.8965Z" fill="url(#paint0_linear_1442_1472)"/>
<path d="M46.6412 11.5428C45.437 9.99243 44.0444 8.59807 42.4957 7.39186C38.6275 4.36798 34.2805 2.40212 29.3908 1.85146C22.7099 1.09786 16.673 2.82154 11.4478 7.07527C10.1354 8.14276 9.02734 9.46867 7.85026 10.6863C7.51202 11.0381 7.1846 11.2681 6.70565 11.053C6.16446 10.8108 6.09005 10.1979 6.5257 9.64996C7.79084 8.0456 9.25113 6.6053 10.8728 5.36241C16.2184 1.29269 22.2648 -0.529756 28.9362 0.133197C36.13 0.844858 42.1385 4.0568 47.0213 9.37667C47.1228 9.48761 47.227 9.5972 47.3312 9.70679C47.3312 9.71355 47.3623 9.70679 47.4286 9.69326C47.4286 9.40643 47.4191 9.11013 47.4286 8.81383C47.4502 8.28347 47.8006 7.91681 48.2674 7.91817C48.3782 7.91777 48.488 7.93961 48.5902 7.98241C48.6924 8.02521 48.785 8.08809 48.8625 8.16732C48.9399 8.24655 49.0007 8.34053 49.0412 8.44368C49.0817 8.54683 49.101 8.65706 49.0981 8.76783C49.1306 9.96521 49.1374 11.1639 49.1252 12.3613C49.1252 12.8646 48.7328 13.2204 48.1876 13.2272C46.9384 13.2443 45.6896 13.2443 44.4412 13.2272C43.8622 13.2191 43.5212 12.8619 43.5375 12.3559C43.5537 11.8742 43.8946 11.559 44.4507 11.5441C45.1434 11.5319 45.8334 11.5428 46.6412 11.5428Z" fill="url(#paint1_linear_1442_1472)"/>
<path d="M35.3977 48.8036C35.8536 49.0092 36.269 49.1878 36.6762 49.384C37.1795 49.6262 37.3446 50.0361 37.1389 50.4988C36.9333 50.9616 36.5058 51.1212 36.0025 50.9047C34.9201 50.4393 33.8377 49.9658 32.7662 49.476C32.2074 49.2216 32.0586 48.7008 32.3914 48.1758C33.0147 47.1935 33.6505 46.219 34.2991 45.252C34.5994 44.8029 35.0797 44.6892 35.4802 44.9368C35.9064 45.1993 35.9889 45.6742 35.6872 46.1734C35.5397 46.4183 35.3787 46.6551 35.1839 46.9595C35.2757 46.9466 35.3663 46.9257 35.4545 46.8973C42.3858 43.7327 47.2889 38.6861 49.6512 31.3693C51.1719 26.6569 50.8323 21.9553 49.2061 17.3187C49.1492 17.1604 49.0829 17.0048 49.0342 16.8438C48.8786 16.327 49.0721 15.8967 49.5254 15.7276C49.9786 15.5585 50.4332 15.7777 50.6077 16.2945C50.9839 17.4459 51.4195 18.5945 51.6549 19.7743C53.8197 30.5737 49.8622 38.9432 41.3399 45.4536C40.4297 46.1231 39.474 46.7285 38.4797 47.2653C37.5002 47.8159 36.4638 48.2759 35.3977 48.8036Z" fill="url(#paint2_linear_1442_1472)"/>
<path d="M25.0955 42.782C24.3354 42.782 23.6809 42.5286 23.1319 42.0219C22.583 41.5151 22.2522 40.8958 22.1396 40.1639L21.9154 38.5198C21.8193 37.8149 21.3327 37.2401 20.725 36.8701C20.1193 36.5014 19.3755 36.4042 18.7215 36.6784L17.1568 37.3346C16.453 37.6443 15.7492 37.6724 15.0454 37.4191C14.3416 37.1657 13.7926 36.7153 13.3985 36.0678L11.4138 32.6052C11.0197 31.9577 10.9071 31.268 11.076 30.536C11.2449 29.8041 11.625 29.1988 12.2162 28.7202L13.9976 27.3758C14.2793 27.1631 14.412 26.814 14.412 26.4611V25.3209C14.412 24.9679 14.2793 24.6188 13.9976 24.4062L12.2162 23.0617C11.625 22.5832 11.2449 21.9779 11.076 21.246C10.9071 20.514 11.0197 19.8243 11.4138 19.1768L13.3985 15.7142C13.7926 15.0667 14.3416 14.6163 15.0454 14.3629C15.7492 14.1095 16.453 14.1377 17.1568 14.4473L18.7051 15.0966C19.3692 15.3752 20.124 15.2747 20.7461 14.9118C21.3528 14.5579 21.8179 13.9776 21.9128 13.2816L22.1396 11.6181C22.2522 10.8862 22.583 10.2668 23.1319 9.76009C23.6809 9.25336 24.3354 9 25.0955 9H29.0649C29.825 9 30.4795 9.25336 31.0285 9.76009C31.5774 10.2668 31.9082 10.8862 32.0208 11.6181L32.245 13.2621C32.3411 13.9671 32.8277 14.5419 33.4354 14.9118C34.0412 15.2805 34.785 15.3778 35.4389 15.1035L37.0037 14.4473C37.7075 14.1377 38.4113 14.1095 39.115 14.3629C39.8188 14.6163 40.3678 15.0667 40.7619 15.7142L42.7466 19.1768C43.1407 19.8243 43.2533 20.514 43.0844 21.246C42.9155 21.9779 42.5355 22.5832 41.9443 23.0617L40.1629 24.4062C39.8811 24.6188 39.7485 24.9679 39.7485 25.3209V26.4611C39.7485 26.8094 39.8474 27.1695 40.1255 27.3794L41.9021 28.7202C42.4932 29.1988 42.8733 29.8041 43.0422 30.536C43.2111 31.268 43.0985 31.9577 42.7044 32.6052L40.6775 36.0678C40.2833 36.7153 39.7344 37.1657 39.0306 37.4191C38.3268 37.6724 37.623 37.6443 36.9192 37.3346L35.4499 36.6979C34.7903 36.4121 34.0353 36.5079 33.4143 36.8701C32.8076 37.224 32.3426 37.8044 32.2477 38.5004L32.0208 40.1639C31.9082 40.8958 31.5774 41.5151 31.0285 42.0219C30.4795 42.5286 29.825 42.782 29.0649 42.782H25.0955ZM27.1647 31.8028C28.7975 31.8028 30.191 31.2257 31.3452 30.0715C32.4994 28.9173 33.0765 27.5238 33.0765 25.891C33.0765 24.2582 32.4994 22.8647 31.3452 21.7105C30.191 20.5562 28.7975 19.9791 27.1647 19.9791C25.5037 19.9791 24.1032 20.5562 22.963 21.7105C21.8229 22.8647 21.2528 24.2582 21.2528 25.891C21.2528 27.5238 21.8229 28.9173 22.963 30.0715C24.1032 31.2257 25.5037 31.8028 27.1647 31.8028Z" fill="url(#paint3_linear_1442_1472)"/>
<defs>
<linearGradient id="paint0_linear_1442_1472" x1="30.3976" y1="12.7264" x2="-11.0777" y2="31.6324" gradientUnits="userSpaceOnUse">
<stop stop-color="#39B3AB"/>
<stop offset="1" stop-color="#4095C1"/>
</linearGradient>
<linearGradient id="paint1_linear_1442_1472" x1="52.0141" y1="-0.719569" x2="35.2133" y2="30.9523" gradientUnits="userSpaceOnUse">
<stop stop-color="#39B3AB"/>
<stop offset="1" stop-color="#4095C1"/>
</linearGradient>
<linearGradient id="paint2_linear_1442_1472" x1="53.5839" y1="13.7514" x2="21.3711" y2="24.376" gradientUnits="userSpaceOnUse">
<stop stop-color="#39B3AB"/>
<stop offset="1" stop-color="#4095C1"/>
</linearGradient>
<linearGradient id="paint3_linear_1442_1472" x1="45.3225" y1="7.16402" x2="1.42623" y2="31.4842" gradientUnits="userSpaceOnUse">
<stop stop-color="#39B3AB"/>
<stop offset="1" stop-color="#4095C1"/>
</linearGradient>
</defs>
</svg>
