<svg width="53" height="52" viewBox="0 0 53 52" fill="none" xmlns="http://www.w3.org/2000/svg">
<path d="M27.0067 46.6217H26.411C20.416 46.6217 14.4195 46.6217 8.4245 46.6217C6.45161 46.6217 5.38135 45.55 5.38135 43.5771C5.38135 30.0573 5.38135 16.5375 5.38135 3.0177C5.38135 1.07625 6.45461 0 8.39456 0C14.9509 0 21.5057 0 28.062 0C28.2461 0 28.4318 0 28.6967 0V0.61821C28.6967 3.58801 28.6967 6.55632 28.6967 9.52612C28.6967 10.4781 28.9781 10.7581 29.9301 10.7581C32.8805 10.7581 35.8323 10.7581 38.7827 10.7581H39.4218V25.0652C34.0166 25.3107 29.7655 27.6084 27.0471 32.3071C24.3378 36.9893 24.495 41.7973 27.0052 46.6202L27.0067 46.6217ZM22.4188 20.621C18.9625 20.621 15.5077 20.621 12.0514 20.621C11.8838 20.621 11.7116 20.6045 11.5485 20.6344C11.0665 20.7243 10.7731 21.0206 10.7731 21.5161C10.7731 22.0116 11.068 22.308 11.5485 22.3993C11.7116 22.4307 11.8838 22.4127 12.0514 22.4127C18.9625 22.4127 25.8736 22.4127 32.7847 22.4127C32.9523 22.4127 33.1245 22.4292 33.2876 22.3993C33.7681 22.308 34.063 22.0116 34.063 21.5161C34.063 21.0206 33.7696 20.7243 33.2876 20.6344C33.1245 20.6045 32.9523 20.621 32.7847 20.621C29.3284 20.621 25.8736 20.621 22.4173 20.621H22.4188ZM20.5896 26.8974C23.4472 26.8974 26.3047 26.8974 29.1637 26.8974C29.3314 26.8974 29.502 26.9079 29.6682 26.8884C30.1547 26.83 30.5109 26.4408 30.4825 25.9798C30.451 25.4858 30.1666 25.1954 29.6831 25.1161C29.5185 25.0891 29.3478 25.1056 29.1802 25.1056C23.4831 25.1056 17.786 25.1056 12.0889 25.1056C11.9017 25.1056 11.7101 25.0877 11.5305 25.1236C11.074 25.2119 10.8075 25.4993 10.7716 25.9663C10.7387 26.4049 11.065 26.8016 11.5155 26.8794C11.6982 26.9108 11.8883 26.8989 12.0739 26.8989C14.9135 26.8989 17.7515 26.8989 20.5911 26.8989L20.5896 26.8974ZM18.8308 29.5858C17.6542 29.5858 16.4777 29.5858 15.3011 29.5858C14.1051 29.5858 12.9106 29.5768 11.7146 29.5918C11.1428 29.5992 10.7656 29.975 10.7656 30.4824C10.7656 30.9898 11.1443 31.3476 11.7161 31.376C11.8658 31.3835 12.0155 31.379 12.1637 31.379C16.3669 31.379 20.5687 31.379 24.7719 31.379C25.2015 31.379 25.655 31.4599 26.0532 31.3461C26.3616 31.2578 26.7403 30.9719 26.8316 30.689C26.9124 30.439 26.7118 30.0139 26.5038 29.7819C26.3556 29.6157 25.9918 29.5947 25.7239 29.5918C23.4262 29.5783 21.1285 29.5843 18.8323 29.5843L18.8308 29.5858ZM18.4401 16.1378C17.8054 16.1378 17.1707 16.1378 16.5346 16.1378C14.9464 16.1378 13.3597 16.1408 11.7715 16.1378C11.312 16.1378 10.9078 16.31 10.8375 16.7635C10.7911 17.0614 10.9183 17.4671 11.1159 17.6961C11.2716 17.8757 11.6548 17.9206 11.9362 17.9221C15.2982 17.9371 18.6601 17.9311 22.0221 17.9311C23.0116 17.9311 24.0025 17.9386 24.9919 17.9281C25.6206 17.9206 26.0338 17.5194 25.9978 16.9806C25.9649 16.4627 25.5742 16.1423 24.938 16.1408C22.7721 16.1363 20.6046 16.1393 18.4386 16.1393L18.4401 16.1378ZM17.4881 34.0689C15.602 34.0689 13.716 34.0644 11.8284 34.0704C11.1338 34.0719 10.6953 34.5 10.7716 35.0748C10.836 35.5658 11.2147 35.8577 11.8269 35.8592C14.0303 35.8637 16.2352 35.8607 18.4386 35.8607C20.0268 35.8607 21.6135 35.8667 23.2017 35.8577C23.8304 35.8547 24.2435 35.4475 24.2076 34.9087C24.1746 34.3907 23.7839 34.0704 23.1478 34.0689C21.2617 34.0644 19.3756 34.0674 17.4881 34.0674V34.0689ZM17.0031 40.3453C18.7215 40.3453 20.4399 40.3468 22.1583 40.3453C22.8993 40.3453 23.3259 40.001 23.3109 39.4277C23.2975 38.8754 22.8858 38.5536 22.1718 38.5536C18.7544 38.5521 15.3356 38.5521 11.9182 38.5536C11.1728 38.5536 10.7521 38.8948 10.7656 39.4696C10.7791 40.0235 11.1892 40.3438 11.9032 40.3453C13.6022 40.3483 15.3026 40.3453 17.0016 40.3453H17.0031Z" fill="url(#paint0_linear_1949_803)"/>
<path d="M52.0105 39.4323C52.015 46.3464 46.3837 51.9971 39.4846 52.0001C32.581 52.0031 26.8989 46.3479 26.9019 39.4787C26.9049 32.6499 32.608 26.9094 39.3978 26.8989C46.3553 26.887 52.0045 32.5018 52.009 39.4338L52.0105 39.4323ZM37.7916 41.7554C36.7753 40.4891 35.8457 39.326 34.9101 38.1674C34.4611 37.6106 33.9656 37.5088 33.5166 37.8666C33.072 38.2198 33.0705 38.7168 33.5255 39.2901C34.5958 40.6343 35.6706 41.9755 36.7438 43.3152C37.3905 44.1235 37.8291 44.1445 38.5745 43.399C41.0848 40.8903 43.595 38.3815 46.1038 35.8712C46.2475 35.726 46.4017 35.5793 46.502 35.4057C46.7265 35.0195 46.6681 34.6393 46.3538 34.3324C46.0394 34.0241 45.6562 33.9762 45.276 34.2067C45.1039 34.3115 44.9602 34.4672 44.8165 34.6123C42.7807 36.6451 40.745 38.6764 38.7152 40.7151C38.4009 41.031 38.1209 41.3827 37.7916 41.7569V41.7554Z" fill="url(#paint1_linear_1949_803)"/>
<path d="M3.58801 5.43065C3.58801 5.70458 3.58801 5.94558 3.58801 6.18658C3.58801 18.699 3.58801 31.2114 3.58801 43.7223C3.58801 46.1607 5.09387 47.9749 7.43499 48.3596C7.7643 48.4135 8.10409 48.4105 8.43939 48.4105C14.8655 48.4135 21.2901 48.4165 27.7162 48.4045C28.1069 48.4045 28.3389 48.5497 28.6203 48.8086C29.6471 49.7532 30.7219 50.6453 31.7802 51.5524C31.8895 51.6452 32.0167 51.7171 32.2607 51.8847C31.8386 51.9341 31.5542 51.994 31.2712 51.994C21.7825 51.9985 12.2938 52 2.80515 51.9955C1.14212 51.9955 0 50.8399 0 49.1634C0 35.5149 0 21.8634 0.00299375 8.21335C0.00299375 6.27339 1.40108 5.17618 3.58801 5.43065Z" fill="url(#paint2_linear_1949_803)"/>
<path d="M30.5303 0.677979C33.28 3.42774 36.0223 6.17002 38.7706 8.91679H30.5303V0.677979Z" fill="url(#paint3_linear_1949_803)"/>
<defs>
<linearGradient id="paint0_linear_1949_803" x1="41.7103" y1="-2.53379" x2="-9.72665" y2="19.3229" gradientUnits="userSpaceOnUse">
<stop stop-color="#39B3AB"/>
<stop offset="1" stop-color="#4095C1"/>
</linearGradient>
<linearGradient id="paint1_linear_1949_803" x1="53.6984" y1="25.5347" x2="20.2448" y2="45.0096" gradientUnits="userSpaceOnUse">
<stop stop-color="#39B3AB"/>
<stop offset="1" stop-color="#4095C1"/>
</linearGradient>
<linearGradient id="paint2_linear_1949_803" x1="34.4295" y1="2.86146" x2="-15.0841" y2="22.8084" gradientUnits="userSpaceOnUse">
<stop stop-color="#39B3AB"/>
<stop offset="1" stop-color="#4095C1"/>
</linearGradient>
<linearGradient id="paint3_linear_1949_803" x1="39.3245" y1="0.230217" x2="28.3449" y2="6.62124" gradientUnits="userSpaceOnUse">
<stop stop-color="#39B3AB"/>
<stop offset="1" stop-color="#4095C1"/>
</linearGradient>
</defs>
</svg>
