<svg width="50" height="51" viewBox="0 0 50 51" fill="none" xmlns="http://www.w3.org/2000/svg">
<path d="M46.8496 1.724C46.5212 1.03987 45.948 0.502654 45.2437 0.218921C45.0478 0.135385 44.8462 0.0734537 44.6474 0H43.5557C43.3901 0.0633718 43.223 0.135385 43.0574 0.190115C42.4957 0.397514 42.0089 0.766223 41.6546 1.25015C41.3017 1.73408 41.0986 2.31019 41.0698 2.9079C41.0381 3.74038 41.3363 4.45187 41.8447 5.09855L35.4801 14.6418C34.2732 14.2716 33.2203 14.5237 32.2971 15.359C32.2093 15.4368 31.9673 15.4209 31.8319 15.359C30.9966 14.9673 30.1727 14.5424 29.346 14.1348C28.816 13.8626 28.2975 13.5918 27.7977 13.3369C27.8294 13.0704 27.8424 12.8025 27.8395 12.5347C27.7243 11.2326 27.0762 10.2864 25.839 9.83847C24.6479 9.40639 23.5331 9.64115 22.6459 10.5543C21.7227 11.5077 21.498 12.6513 22.0237 13.8856C22.1504 14.1953 22.1015 14.3609 21.8782 14.5654C21.4894 14.9241 21.1264 15.31 20.7534 15.6816L16.7264 19.6942C14.0806 18.6587 12.0729 20.014 12.1233 22.7706C12.119 22.8355 12.1003 22.8988 12.0671 22.9564C12.0354 23.014 11.9894 23.063 11.9361 23.1005C10.5707 23.7975 9.19812 24.4874 7.8241 25.1658C7.69448 25.0477 7.5879 24.9469 7.477 24.8504C6.97579 24.4269 6.35071 24.1763 5.69539 24.136C5.04007 24.0957 4.38906 24.2685 3.84032 24.6286C3.29302 24.9757 2.87246 25.4942 2.64634 26.102C2.41878 26.7112 2.39717 27.3766 2.58297 27.9988C2.76588 28.6311 3.14899 29.1856 3.67325 29.5817C4.19895 29.9777 4.83699 30.1938 5.49519 30.1967C7.2624 30.2096 8.62777 28.7607 8.52983 26.9474C8.51543 26.5888 8.60761 26.4188 8.92303 26.2748C9.58123 25.9738 10.225 25.6339 10.8746 25.3098L12.8319 24.3463C14.1771 25.5201 15.639 25.7073 16.8546 24.8605C18.3366 23.8292 18.5123 22.17 17.785 20.7154C19.5263 18.9899 21.292 17.2443 23.0593 15.516C23.1269 15.4714 23.2033 15.444 23.2825 15.4339C23.3617 15.4238 23.4438 15.4339 23.5187 15.4584C24.7789 15.9755 25.9052 15.7781 26.9293 14.8881C26.9869 14.8434 27.0531 14.8132 27.1237 14.7988C27.1943 14.7844 27.2677 14.7858 27.3369 14.8045C28.7152 15.4685 30.0806 16.1627 31.4402 16.8425C31.4531 18.8329 32.0753 19.9117 33.4652 20.387C34.0471 20.5872 34.6765 20.6059 35.2684 20.4403C35.8604 20.2747 36.3889 19.9333 36.7836 19.4623C37.7356 18.2842 37.7269 17.0225 36.749 15.457C36.7576 15.4267 36.7706 15.395 36.7865 15.3662C38.8316 12.3071 40.8711 9.24364 42.9018 6.17587C43.0703 5.92238 43.2345 5.95263 43.4837 6.00592C44.2269 6.16291 45.0017 6.03616 45.6571 5.65017C46.3109 5.26274 46.7963 4.6463 47.0167 3.91897C47.237 3.19307 47.178 2.40957 46.8496 1.724ZM6.58835 28.2667C6.29742 28.5519 5.90711 28.7132 5.49807 28.7146C5.19273 28.7132 4.89316 28.621 4.63967 28.4496C4.38618 28.2782 4.18887 28.0348 4.07365 27.7511C3.95842 27.4674 3.92962 27.1563 3.99155 26.8567C4.05348 26.5557 4.20327 26.282 4.42075 26.066C4.63967 25.8514 4.9162 25.7059 5.21722 25.6497C5.51823 25.5921 5.82933 25.6252 6.11162 25.7448C6.39248 25.8643 6.633 26.0645 6.80151 26.3209C6.96858 26.5773 7.05644 26.8768 7.05356 27.1836C7.04636 27.5912 6.87929 27.9801 6.58835 28.2667ZM16.5449 22.9852C16.46 23.1696 16.339 23.3352 16.1906 23.472C16.0408 23.6103 15.8666 23.7169 15.6764 23.7875C15.4863 23.858 15.2833 23.8897 15.0816 23.8825C14.6711 23.8652 14.2851 23.6881 14.0072 23.3871C13.7292 23.0861 13.5823 22.6871 13.5981 22.2781C13.614 21.869 13.7926 21.483 14.0936 21.2051C14.3932 20.9271 14.7921 20.7787 15.2026 20.7946C15.4042 20.8032 15.6044 20.8508 15.7873 20.9357C15.9717 21.0207 16.1373 21.1417 16.2756 21.29C16.4139 21.4384 16.5204 21.6141 16.591 21.8042C16.6601 21.9943 16.6933 22.196 16.6846 22.399C16.6774 22.6021 16.6285 22.8009 16.5449 22.9852ZM25.9124 13.7747C25.6244 14.0671 25.2341 14.2342 24.825 14.2443C24.5154 14.2471 24.2129 14.1578 23.9537 13.9893C23.6944 13.8194 23.4928 13.5774 23.3718 13.2922C23.2508 13.0071 23.2177 12.6931 23.2767 12.3892C23.3343 12.0853 23.4827 11.8059 23.7002 11.5855C23.9177 11.3666 24.1956 11.2154 24.4981 11.1549C24.802 11.0929 25.116 11.1232 25.4026 11.2399C25.6877 11.358 25.9326 11.5582 26.1054 11.8145C26.2768 12.0723 26.369 12.3748 26.369 12.683C26.3632 13.0935 26.2005 13.4838 25.9124 13.7747ZM35.8863 18.1445C35.7624 18.4268 35.5565 18.6644 35.2958 18.8286C35.0336 18.9943 34.7312 19.0763 34.423 19.0677C34.0139 19.0576 33.6265 18.8862 33.3442 18.591C33.0605 18.2957 32.9064 17.9011 32.9136 17.4921C32.9179 17.1838 33.0144 16.8843 33.1901 16.6308C33.3644 16.3773 33.6121 16.1814 33.8987 16.0691C34.1853 15.9567 34.4993 15.9308 34.8003 15.9971C35.1013 16.0633 35.3764 16.2174 35.5896 16.4407C35.8027 16.6625 35.9439 16.9433 35.9972 17.2472C36.0505 17.5511 36.0116 17.8636 35.8863 18.1445ZM45.5418 3.62804C45.4655 3.81527 45.3532 3.98522 45.2106 4.12781C45.068 4.27183 44.898 4.38562 44.7108 4.46339C44.5236 4.54116 44.3234 4.58005 44.1217 4.58005C43.815 4.58293 43.5139 4.49508 43.2576 4.32657C42.9998 4.15805 42.7996 3.91609 42.68 3.6338C42.5605 3.35006 42.5288 3.03897 42.5864 2.73651C42.6455 2.43549 42.7924 2.15896 43.0084 1.94004C43.2244 1.72256 43.501 1.57421 43.802 1.51372C44.103 1.45323 44.4156 1.48348 44.6993 1.60158C44.983 1.71968 45.225 1.91844 45.3949 2.1748C45.5663 2.42973 45.6556 2.73075 45.6542 3.03753C45.6571 3.23916 45.6182 3.43936 45.5418 3.62804Z" fill="url(#paint0_linear_1266_1532)"/>
<path d="M46.8496 1.724C46.5212 1.03987 45.948 0.502654 45.2437 0.218921C45.0478 0.135385 44.8462 0.0734537 44.6474 0H43.5557C43.3901 0.0633718 43.223 0.135385 43.0574 0.190115C42.4957 0.397514 42.0089 0.766223 41.6546 1.25015C41.3017 1.73408 41.0986 2.31019 41.0698 2.9079C41.0381 3.74038 41.3363 4.45187 41.8447 5.09855L35.4801 14.6418C34.2732 14.2716 33.2203 14.5237 32.2971 15.359C32.2093 15.4368 31.9673 15.4209 31.8319 15.359C30.9966 14.9673 30.1727 14.5424 29.346 14.1348C28.816 13.8626 28.2975 13.5918 27.7977 13.3369C27.8294 13.0704 27.8424 12.8025 27.8395 12.5347C27.7243 11.2326 27.0762 10.2864 25.839 9.83847C24.6479 9.40639 23.5331 9.64115 22.6459 10.5543C21.7227 11.5077 21.498 12.6513 22.0237 13.8856C22.1504 14.1953 22.1015 14.3609 21.8782 14.5654C21.4894 14.9241 21.1264 15.31 20.7534 15.6816L16.7264 19.6942C14.0806 18.6587 12.0729 20.014 12.1233 22.7706C12.119 22.8355 12.1003 22.8988 12.0671 22.9564C12.0354 23.014 11.9894 23.063 11.9361 23.1005C10.5707 23.7975 9.19812 24.4874 7.8241 25.1658C7.69448 25.0477 7.5879 24.9469 7.477 24.8504C6.97579 24.4269 6.35071 24.1763 5.69539 24.136C5.04007 24.0957 4.38906 24.2685 3.84032 24.6286C3.29302 24.9757 2.87246 25.4942 2.64634 26.102C2.41878 26.7112 2.39717 27.3766 2.58297 27.9988C2.76588 28.6311 3.14899 29.1856 3.67325 29.5817C4.19895 29.9777 4.83699 30.1938 5.49519 30.1967C7.2624 30.2096 8.62777 28.7607 8.52983 26.9474C8.51543 26.5888 8.60761 26.4188 8.92303 26.2748C9.58123 25.9738 10.225 25.6339 10.8746 25.3098L12.8319 24.3463C14.1771 25.5201 15.639 25.7073 16.8546 24.8605C18.3366 23.8292 18.5123 22.17 17.785 20.7154C19.5263 18.9899 21.292 17.2443 23.0593 15.516C23.1269 15.4714 23.2033 15.444 23.2825 15.4339C23.3617 15.4238 23.4438 15.4339 23.5187 15.4584C24.7789 15.9755 25.9052 15.7781 26.9293 14.8881C26.9869 14.8434 27.0531 14.8132 27.1237 14.7988C27.1943 14.7844 27.2677 14.7858 27.3369 14.8045C28.7152 15.4685 30.0806 16.1627 31.4402 16.8425C31.4531 18.8329 32.0753 19.9117 33.4652 20.387C34.0471 20.5872 34.6765 20.6059 35.2684 20.4403C35.8604 20.2747 36.3889 19.9333 36.7836 19.4623C37.7356 18.2842 37.7269 17.0225 36.749 15.457C36.7576 15.4267 36.7706 15.395 36.7865 15.3662C38.8316 12.3071 40.8711 9.24364 42.9018 6.17587C43.0703 5.92238 43.2345 5.95263 43.4837 6.00592C44.2269 6.16291 45.0017 6.03616 45.6571 5.65017C46.3109 5.26274 46.7963 4.6463 47.0167 3.91897C47.237 3.19307 47.178 2.40957 46.8496 1.724ZM6.58835 28.2667C6.29742 28.5519 5.90711 28.7132 5.49807 28.7146C5.19273 28.7132 4.89316 28.621 4.63967 28.4496C4.38618 28.2782 4.18887 28.0348 4.07365 27.7511C3.95842 27.4674 3.92962 27.1563 3.99155 26.8567C4.05348 26.5557 4.20327 26.282 4.42075 26.066C4.63967 25.8514 4.9162 25.7059 5.21722 25.6497C5.51823 25.5921 5.82933 25.6252 6.11162 25.7448C6.39248 25.8643 6.633 26.0645 6.80151 26.3209C6.96858 26.5773 7.05644 26.8768 7.05356 27.1836C7.04636 27.5912 6.87929 27.9801 6.58835 28.2667ZM16.5449 22.9852C16.46 23.1696 16.339 23.3352 16.1906 23.472C16.0408 23.6103 15.8666 23.7169 15.6764 23.7875C15.4863 23.858 15.2833 23.8897 15.0816 23.8825C14.6711 23.8652 14.2851 23.6881 14.0072 23.3871C13.7292 23.0861 13.5823 22.6871 13.5981 22.2781C13.614 21.869 13.7926 21.483 14.0936 21.2051C14.3932 20.9271 14.7921 20.7787 15.2026 20.7946C15.4042 20.8032 15.6044 20.8508 15.7873 20.9357C15.9717 21.0207 16.1373 21.1417 16.2756 21.29C16.4139 21.4384 16.5204 21.6141 16.591 21.8042C16.6601 21.9943 16.6933 22.196 16.6846 22.399C16.6774 22.6021 16.6285 22.8009 16.5449 22.9852ZM25.9124 13.7747C25.6244 14.0671 25.2341 14.2342 24.825 14.2443C24.5154 14.2471 24.2129 14.1578 23.9537 13.9893C23.6944 13.8194 23.4928 13.5774 23.3718 13.2922C23.2508 13.0071 23.2177 12.6931 23.2767 12.3892C23.3343 12.0853 23.4827 11.8059 23.7002 11.5855C23.9177 11.3666 24.1956 11.2154 24.4981 11.1549C24.802 11.0929 25.116 11.1232 25.4026 11.2399C25.6877 11.358 25.9326 11.5582 26.1054 11.8145C26.2768 12.0723 26.369 12.3748 26.369 12.683C26.3632 13.0935 26.2005 13.4838 25.9124 13.7747ZM35.8863 18.1445C35.7624 18.4268 35.5565 18.6644 35.2958 18.8286C35.0336 18.9943 34.7312 19.0763 34.423 19.0677C34.0139 19.0576 33.6265 18.8862 33.3442 18.591C33.0605 18.2957 32.9064 17.9011 32.9136 17.4921C32.9179 17.1838 33.0144 16.8843 33.1901 16.6308C33.3644 16.3773 33.6121 16.1814 33.8987 16.0691C34.1853 15.9567 34.4993 15.9308 34.8003 15.9971C35.1013 16.0633 35.3764 16.2174 35.5896 16.4407C35.8027 16.6625 35.9439 16.9433 35.9972 17.2472C36.0505 17.5511 36.0116 17.8636 35.8863 18.1445ZM45.5418 3.62804C45.4655 3.81527 45.3532 3.98522 45.2106 4.12781C45.068 4.27183 44.898 4.38562 44.7108 4.46339C44.5236 4.54116 44.3234 4.58005 44.1217 4.58005C43.815 4.58293 43.5139 4.49508 43.2576 4.32657C42.9998 4.15805 42.7996 3.91609 42.68 3.6338C42.5605 3.35006 42.5288 3.03897 42.5864 2.73651C42.6455 2.43549 42.7924 2.15896 43.0084 1.94004C43.2244 1.72256 43.501 1.57421 43.802 1.51372C44.103 1.45323 44.4156 1.48348 44.6993 1.60158C44.983 1.71968 45.225 1.91844 45.3949 2.1748C45.5663 2.42973 45.6556 2.73075 45.6542 3.03753C45.6571 3.23916 45.6182 3.43936 45.5418 3.62804Z" fill="url(#paint1_linear_1266_1532)"/>
<path d="M49.6151 49.9672C49.6064 50.369 49.3213 50.6571 48.8863 50.6916C48.738 50.7003 48.5896 50.6916 48.4427 50.6916H1.17456C0.993086 50.7046 0.811612 50.7003 0.631578 50.6772C0.223983 50.598 -0.0151019 50.3474 0.000741056 49.9182C-0.00357975 49.7425 0.0612323 49.5711 0.180775 49.4415C0.301757 49.3119 0.467388 49.2341 0.643101 49.224C0.980123 49.2024 1.31859 49.1995 1.65561 49.2154V36.6778C1.65561 35.3758 2.10785 34.9265 3.4113 34.9265H7.77675C8.84831 34.9308 9.35096 35.4306 9.35096 36.505V49.1635H11.3068V31.8313C11.3068 30.5653 11.7721 30.0929 13.0265 30.0929C14.3991 30.0915 15.7731 30.1376 17.1428 30.0814C18.5759 30.0195 19.0267 30.7612 19.0267 31.9408C18.9993 37.4671 19.0137 42.9949 19.0137 48.5226V49.1808H20.948V22.219C20.948 20.8623 21.4046 20.3999 22.7512 20.3999H26.964C28.1709 20.3999 28.6664 20.8968 28.6664 22.1196V49.1678H30.6079V48.5168C30.5992 41.3529 30.5992 34.1919 30.6079 27.0338C30.6093 26.6809 30.6525 25.8182 30.9247 25.5475C31.1998 24.9541 35.4169 24.9339 36.9537 25.2335C37.2446 25.2695 37.5226 25.3761 37.7602 25.5475C38.2067 25.8629 38.3104 26.3281 38.3104 26.8523V49.1678H40.2678V12.2192C40.285 11.2816 40.7906 10.7372 41.7339 10.7242C43.3182 10.7026 44.904 10.7026 46.4911 10.7242C47.4777 10.7372 47.9573 11.2989 47.9573 12.3762V49.2111C48.2857 49.2111 48.5781 49.1952 48.8662 49.2111C49.3285 49.237 49.6237 49.5668 49.6151 49.9672Z" fill="url(#paint2_linear_1266_1532)"/>
<defs>
<linearGradient id="paint0_linear_1266_1532" x1="50.152" y1="-1.64113" x2="4.38303" y2="37.7791" gradientUnits="userSpaceOnUse">
<stop stop-color="#39B3AB"/>
<stop offset="1" stop-color="#4095C1"/>
</linearGradient>
<linearGradient id="paint1_linear_1266_1532" x1="50.152" y1="-1.64113" x2="4.38303" y2="37.7791" gradientUnits="userSpaceOnUse">
<stop stop-color="#39B3AB"/>
<stop offset="1" stop-color="#4095C1"/>
</linearGradient>
<linearGradient id="paint2_linear_1266_1532" x1="52.9508" y1="8.53459" x2="-5.22723" y2="50.541" gradientUnits="userSpaceOnUse">
<stop stop-color="#39B3AB"/>
<stop offset="1" stop-color="#4095C1"/>
</linearGradient>
</defs>
</svg>
