<svg width="47" height="47" viewBox="0 0 47 47" fill="none" xmlns="http://www.w3.org/2000/svg">
<path d="M45.9327 7.42027H45.9191C43.5248 7.42893 41.1763 7.43017 39.3979 7.43017H33.9341C33.1726 7.43017 32.5552 6.8128 32.5552 6.05123C32.5552 5.80389 32.5552 5.55655 32.5552 5.3092C32.5552 4.81452 32.5552 4.31983 32.5552 3.82515C32.5684 3.67865 32.5342 3.53178 32.4576 3.4062C32.381 3.28063 32.2661 3.18297 32.1298 3.12764C30.9178 2.56865 30.0274 1.68564 29.409 0.429139C29.3265 0.305681 29.2216 0.198725 29.0998 0.113777C29.0125 0.0410285 28.9023 0 28.7886 0H18.283C18.1297 0 17.99 0.0711008 17.8767 0.174376C17.7135 0.327255 17.5713 0.501083 17.4537 0.691322C16.8514 1.79323 16.0773 2.55505 15.0681 3.02129C14.5944 3.24266 14.4151 3.53205 14.4312 4.05642C14.4535 4.77123 14.4485 5.47369 14.4436 6.21695C14.4436 6.52613 14.4436 6.83531 14.4436 7.15438C14.4436 7.28609 14.3404 7.39473 14.2089 7.40159L14.0404 7.41038C13.8969 7.41903 13.7621 7.42769 13.6273 7.42769H7.34978C4.86151 7.42769 2.86793 7.42769 1.07718 7.4178H1.06234C0.272336 7.42149 0 8.30157 0 9.09157V15.5959C0 15.7033 0.0414685 15.8063 0.112541 15.8868L0.126145 15.9016C0.244549 16.0416 0.373103 16.1726 0.510762 16.2937C6.73019 21.5188 11.9615 25.8967 17.2732 30.3341C17.4273 30.4511 17.5507 30.6039 17.6326 30.7793C17.7144 30.9547 17.7524 31.1474 17.7431 31.3408C17.7344 35.7793 17.7357 40.2673 17.7369 44.6082V45.9203C17.7369 46.5597 17.9447 46.8837 18.3553 46.8837C18.5756 46.8734 18.7913 46.8169 18.9885 46.718C19.9828 46.2654 20.9767 45.8119 21.9702 45.3576L22.1347 45.2822C24.2556 44.3126 26.4496 43.3035 28.6348 42.3265C29.1295 42.1051 29.3088 41.8169 29.3051 41.2654C29.2928 39.3781 29.2928 37.4588 29.2928 35.6025C29.2928 34.158 29.2928 32.7152 29.2928 31.274C29.2844 31.0948 29.3198 30.9163 29.3959 30.7538C29.4719 30.5914 29.5864 30.4498 29.7293 30.3415C34.6217 26.2504 39.8704 21.8539 46.2382 16.5052C46.4373 16.3382 46.6265 16.144 46.8095 15.9573C46.9313 15.8331 47 15.6672 47 15.4933V9.09482C47 8.30335 46.7242 7.42027 45.9327 7.42027ZM16.2405 3.93645C17.1246 3.40861 17.8626 2.66802 18.3874 1.7821C18.4588 1.64574 18.5685 1.53319 18.7029 1.45827C18.8374 1.38336 18.9908 1.34933 19.1443 1.36038H19.1517C20.3588 1.36038 21.5662 1.36244 22.774 1.36657C24.4424 1.36657 26.1676 1.36657 27.8681 1.37893C28.0074 1.38792 28.143 1.42789 28.265 1.49593C28.3869 1.56396 28.4921 1.65835 28.573 1.77221C29.1394 2.65613 29.8898 3.40742 30.7731 3.97479C30.8878 4.05429 30.9833 4.15839 31.0526 4.27948C31.1219 4.40058 31.1633 4.53563 31.1738 4.67477C31.1886 7.71956 31.1911 10.9449 31.18 14.5338C31.1738 16.6053 30.3947 18.4913 28.7981 20.2932C27.5168 21.7389 25.893 22.9608 23.8327 24.0281C23.7252 24.082 23.6066 24.11 23.4864 24.1097C23.3973 24.1116 23.3091 24.0921 23.2292 24.0528C20.3254 22.5477 18.3565 20.8522 17.0332 18.7152C16.2177 17.413 15.792 15.9045 15.8064 14.3681C15.8138 13.3367 15.8064 12.2867 15.8064 11.2763V11.0772C15.8064 10.6765 15.8064 10.2771 15.8064 9.87638V8.59144C15.8064 7.33123 15.8064 6.02897 15.799 4.74032C15.7849 4.5777 15.8194 4.41456 15.898 4.27149C15.9765 4.12842 16.0957 4.01184 16.2405 3.93645ZM1.38759 11.8125C1.38759 10.1449 2.73944 8.79302 4.40702 8.79302H7.42027C9.13683 8.79302 11.3975 8.79302 13.6582 8.78313C13.8821 8.78313 14.1121 8.80539 14.2766 8.96863C14.4003 9.09231 14.4572 9.28276 14.4522 9.56597C14.4337 10.6332 14.4361 11.7216 14.4398 12.774V12.7925C14.4398 13.2576 14.4398 13.7238 14.4398 14.1888C14.4398 14.284 14.4337 14.378 14.4262 14.4757L14.4176 14.5994C14.4092 14.7301 14.3008 14.8319 14.1698 14.8319H4.40702C2.73943 14.8319 1.38759 13.48 1.38759 11.8125ZM27.3746 41.4026C25.5196 42.2349 23.6435 43.092 21.8267 43.9206L21.8082 43.9292L19.9197 44.7949C19.8369 44.832 19.7528 44.8667 19.6563 44.9062L19.4869 44.9755C19.3238 45.0432 19.1443 44.9234 19.1443 44.7468V35.628C19.1443 33.1373 21.1634 31.1181 23.6542 31.1181H27.6524C27.7834 31.1181 27.8919 31.2199 27.9002 31.3506C27.9002 31.4026 27.9064 31.4533 27.9114 31.5077C27.92 31.6153 27.9274 31.7167 27.9274 31.8231V34.0825C27.9274 36.0835 27.9274 38.3517 27.9373 40.5221C27.9386 40.9673 27.7766 41.2221 27.3746 41.4026ZM43.8884 16.7166L43.7054 16.8564C43.6349 16.9096 43.5644 16.964 43.4964 17.0209L40.7756 19.2977C37.0259 22.4401 32.7753 26.0006 28.6781 29.4201C28.4478 29.6064 28.1629 29.7123 27.8668 29.7219C26.3914 29.7306 24.9247 29.7343 23.5074 29.7343C22.0345 29.7343 20.5678 29.7343 19.1468 29.7207C18.8368 29.7085 18.539 29.5971 18.2972 29.4028C13.9353 25.7632 9.43859 21.9962 5.47121 18.6743L3.55307 17.0666C3.47516 17.0011 3.40343 16.9331 3.32057 16.8539L3.31068 16.844L3.16351 16.703C2.99919 16.5502 3.10733 16.2751 3.33174 16.2751H14.3774C14.4842 16.2751 14.579 16.3433 14.613 16.4446C14.6625 16.5967 14.7107 16.7488 14.7602 16.9021C14.8566 17.2088 14.9556 17.5205 15.073 17.8284C15.9152 19.989 17.4228 21.8243 19.6736 23.4382C20.642 24.132 21.7129 24.7293 22.7493 25.3068L23.0944 25.4998C23.2288 25.5648 23.3766 25.5978 23.526 25.5962C23.614 25.5995 23.7017 25.5839 23.7832 25.5505C27.1805 23.9427 29.4832 22.0357 31.0303 19.5586C31.4323 18.9155 31.734 18.2118 32.0543 17.4648C32.2015 17.1198 32.3549 16.7624 32.5218 16.4062C32.5617 16.3188 32.649 16.2628 32.7451 16.2628H43.7426C43.9859 16.2628 44.0862 16.5749 43.8884 16.7166ZM45.606 11.3564C45.6068 13.2756 44.0512 14.8319 42.132 14.8319H35.292C33.7805 14.8319 32.5552 13.6066 32.5552 12.095C32.5552 11.2046 32.5552 10.3146 32.5552 9.42498C32.5437 9.33718 32.5504 9.24795 32.5749 9.16285C32.5993 9.07775 32.6411 8.99859 32.6974 8.9303C32.7526 8.8798 32.8174 8.84105 32.888 8.81639C32.9586 8.79173 33.0334 8.78167 33.108 8.78684C35.7826 8.79179 38.4584 8.79467 41.1355 8.7955H45.2092C45.2635 8.79756 45.3168 8.80885 45.3671 8.82879C45.3914 8.83843 45.4153 8.85169 45.4405 8.85857C45.5392 8.89419 45.605 8.98785 45.6051 9.0928L45.606 11.3564Z" fill="url(#paint0_linear_2226_758)"/>
<path d="M45.9327 7.42027H45.9191C43.5248 7.42893 41.1763 7.43017 39.3979 7.43017H33.9341C33.1726 7.43017 32.5552 6.8128 32.5552 6.05123C32.5552 5.80389 32.5552 5.55655 32.5552 5.3092C32.5552 4.81452 32.5552 4.31983 32.5552 3.82515C32.5684 3.67865 32.5342 3.53178 32.4576 3.4062C32.381 3.28063 32.2661 3.18297 32.1298 3.12764C30.9178 2.56865 30.0274 1.68564 29.409 0.429139C29.3265 0.305681 29.2216 0.198725 29.0998 0.113777C29.0125 0.0410285 28.9023 0 28.7886 0H18.283C18.1297 0 17.99 0.0711008 17.8767 0.174376C17.7135 0.327255 17.5713 0.501083 17.4537 0.691322C16.8514 1.79323 16.0773 2.55505 15.0681 3.02129C14.5944 3.24266 14.4151 3.53205 14.4312 4.05642C14.4535 4.77123 14.4485 5.47369 14.4436 6.21695C14.4436 6.52613 14.4436 6.83531 14.4436 7.15438C14.4436 7.28609 14.3404 7.39473 14.2089 7.40159L14.0404 7.41038C13.8969 7.41903 13.7621 7.42769 13.6273 7.42769H7.34978C4.86151 7.42769 2.86793 7.42769 1.07718 7.4178H1.06234C0.272336 7.42149 0 8.30157 0 9.09157V15.5959C0 15.7033 0.0414685 15.8063 0.112541 15.8868L0.126145 15.9016C0.244549 16.0416 0.373103 16.1726 0.510762 16.2937C6.73019 21.5188 11.9615 25.8967 17.2732 30.3341C17.4273 30.4511 17.5507 30.6039 17.6326 30.7793C17.7144 30.9547 17.7524 31.1474 17.7431 31.3408C17.7344 35.7793 17.7357 40.2673 17.7369 44.6082V45.9203C17.7369 46.5597 17.9447 46.8837 18.3553 46.8837C18.5756 46.8734 18.7913 46.8169 18.9885 46.718C19.9828 46.2654 20.9767 45.8119 21.9702 45.3576L22.1347 45.2822C24.2556 44.3126 26.4496 43.3035 28.6348 42.3265C29.1295 42.1051 29.3088 41.8169 29.3051 41.2654C29.2928 39.3781 29.2928 37.4588 29.2928 35.6025C29.2928 34.158 29.2928 32.7152 29.2928 31.274C29.2844 31.0948 29.3198 30.9163 29.3959 30.7538C29.4719 30.5914 29.5864 30.4498 29.7293 30.3415C34.6217 26.2504 39.8704 21.8539 46.2382 16.5052C46.4373 16.3382 46.6265 16.144 46.8095 15.9573C46.9313 15.8331 47 15.6672 47 15.4933V9.09482C47 8.30335 46.7242 7.42027 45.9327 7.42027ZM16.2405 3.93645C17.1246 3.40861 17.8626 2.66802 18.3874 1.7821C18.4588 1.64574 18.5685 1.53319 18.7029 1.45827C18.8374 1.38336 18.9908 1.34933 19.1443 1.36038H19.1517C20.3588 1.36038 21.5662 1.36244 22.774 1.36657C24.4424 1.36657 26.1676 1.36657 27.8681 1.37893C28.0074 1.38792 28.143 1.42789 28.265 1.49593C28.3869 1.56396 28.4921 1.65835 28.573 1.77221C29.1394 2.65613 29.8898 3.40742 30.7731 3.97479C30.8878 4.05429 30.9833 4.15839 31.0526 4.27948C31.1219 4.40058 31.1633 4.53563 31.1738 4.67477C31.1886 7.71956 31.1911 10.9449 31.18 14.5338C31.1738 16.6053 30.3947 18.4913 28.7981 20.2932C27.5168 21.7389 25.893 22.9608 23.8327 24.0281C23.7252 24.082 23.6066 24.11 23.4864 24.1097C23.3973 24.1116 23.3091 24.0921 23.2292 24.0528C20.3254 22.5477 18.3565 20.8522 17.0332 18.7152C16.2177 17.413 15.792 15.9045 15.8064 14.3681C15.8138 13.3367 15.8064 12.2867 15.8064 11.2763V11.0772C15.8064 10.6765 15.8064 10.2771 15.8064 9.87638V8.59144C15.8064 7.33123 15.8064 6.02897 15.799 4.74032C15.7849 4.5777 15.8194 4.41456 15.898 4.27149C15.9765 4.12842 16.0957 4.01184 16.2405 3.93645ZM1.38759 11.8125C1.38759 10.1449 2.73944 8.79302 4.40702 8.79302H7.42027C9.13683 8.79302 11.3975 8.79302 13.6582 8.78313C13.8821 8.78313 14.1121 8.80539 14.2766 8.96863C14.4003 9.09231 14.4572 9.28276 14.4522 9.56597C14.4337 10.6332 14.4361 11.7216 14.4398 12.774V12.7925C14.4398 13.2576 14.4398 13.7238 14.4398 14.1888C14.4398 14.284 14.4337 14.378 14.4262 14.4757L14.4176 14.5994C14.4092 14.7301 14.3008 14.8319 14.1698 14.8319H4.40702C2.73943 14.8319 1.38759 13.48 1.38759 11.8125ZM27.3746 41.4026C25.5196 42.2349 23.6435 43.092 21.8267 43.9206L21.8082 43.9292L19.9197 44.7949C19.8369 44.832 19.7528 44.8667 19.6563 44.9062L19.4869 44.9755C19.3238 45.0432 19.1443 44.9234 19.1443 44.7468V35.628C19.1443 33.1373 21.1634 31.1181 23.6542 31.1181H27.6524C27.7834 31.1181 27.8919 31.2199 27.9002 31.3506C27.9002 31.4026 27.9064 31.4533 27.9114 31.5077C27.92 31.6153 27.9274 31.7167 27.9274 31.8231V34.0825C27.9274 36.0835 27.9274 38.3517 27.9373 40.5221C27.9386 40.9673 27.7766 41.2221 27.3746 41.4026ZM43.8884 16.7166L43.7054 16.8564C43.6349 16.9096 43.5644 16.964 43.4964 17.0209L40.7756 19.2977C37.0259 22.4401 32.7753 26.0006 28.6781 29.4201C28.4478 29.6064 28.1629 29.7123 27.8668 29.7219C26.3914 29.7306 24.9247 29.7343 23.5074 29.7343C22.0345 29.7343 20.5678 29.7343 19.1468 29.7207C18.8368 29.7085 18.539 29.5971 18.2972 29.4028C13.9353 25.7632 9.43859 21.9962 5.47121 18.6743L3.55307 17.0666C3.47516 17.0011 3.40343 16.9331 3.32057 16.8539L3.31068 16.844L3.16351 16.703C2.99919 16.5502 3.10733 16.2751 3.33174 16.2751H14.3774C14.4842 16.2751 14.579 16.3433 14.613 16.4446C14.6625 16.5967 14.7107 16.7488 14.7602 16.9021C14.8566 17.2088 14.9556 17.5205 15.073 17.8284C15.9152 19.989 17.4228 21.8243 19.6736 23.4382C20.642 24.132 21.7129 24.7293 22.7493 25.3068L23.0944 25.4998C23.2288 25.5648 23.3766 25.5978 23.526 25.5962C23.614 25.5995 23.7017 25.5839 23.7832 25.5505C27.1805 23.9427 29.4832 22.0357 31.0303 19.5586C31.4323 18.9155 31.734 18.2118 32.0543 17.4648C32.2015 17.1198 32.3549 16.7624 32.5218 16.4062C32.5617 16.3188 32.649 16.2628 32.7451 16.2628H43.7426C43.9859 16.2628 44.0862 16.5749 43.8884 16.7166ZM45.606 11.3564C45.6068 13.2756 44.0512 14.8319 42.132 14.8319H35.292C33.7805 14.8319 32.5552 13.6066 32.5552 12.095C32.5552 11.2046 32.5552 10.3146 32.5552 9.42498C32.5437 9.33718 32.5504 9.24795 32.5749 9.16285C32.5993 9.07775 32.6411 8.99859 32.6974 8.9303C32.7526 8.8798 32.8174 8.84105 32.888 8.81639C32.9586 8.79173 33.0334 8.78167 33.108 8.78684C35.7826 8.79179 38.4584 8.79467 41.1355 8.7955H45.2092C45.2635 8.79756 45.3168 8.80885 45.3671 8.82879C45.3914 8.83843 45.4153 8.85169 45.4405 8.85857C45.5392 8.89419 45.605 8.98785 45.6051 9.0928L45.606 11.3564Z" fill="url(#paint1_linear_2226_758)"/>
<path d="M45.9327 7.42027H45.9191C43.5248 7.42893 41.1763 7.43017 39.3979 7.43017H33.9341C33.1726 7.43017 32.5552 6.8128 32.5552 6.05123C32.5552 5.80389 32.5552 5.55655 32.5552 5.3092C32.5552 4.81452 32.5552 4.31983 32.5552 3.82515C32.5684 3.67865 32.5342 3.53178 32.4576 3.4062C32.381 3.28063 32.2661 3.18297 32.1298 3.12764C30.9178 2.56865 30.0274 1.68564 29.409 0.429139C29.3265 0.305681 29.2216 0.198725 29.0998 0.113777C29.0125 0.041028 28.9023 0 28.7886 0H18.283C18.1297 0 17.99 0.0711007 17.8767 0.174376C17.7135 0.327255 17.5713 0.501083 17.4537 0.691322C16.8514 1.79323 16.0773 2.55505 15.0681 3.02129C14.5944 3.24266 14.4151 3.53205 14.4312 4.05642C14.4535 4.77123 14.4485 5.47369 14.4436 6.21695C14.4436 6.52613 14.4436 6.83531 14.4436 7.15438C14.4436 7.28609 14.3404 7.39473 14.2089 7.40159L14.0404 7.41038C13.8969 7.41903 13.7621 7.42769 13.6273 7.42769H7.34978C4.86151 7.42769 2.86793 7.42769 1.07718 7.4178H1.06234C0.272336 7.42149 0 8.30157 0 9.09157V15.5959C0 15.7033 0.0414684 15.8063 0.112541 15.8868L0.126145 15.9016C0.244549 16.0416 0.373103 16.1726 0.510762 16.2937C6.73019 21.5188 11.9615 25.8967 17.2732 30.3341C17.4273 30.4511 17.5507 30.6039 17.6326 30.7793C17.7144 30.9547 17.7524 31.1474 17.7431 31.3408C17.7344 35.7793 17.7357 40.2673 17.7369 44.6082V45.9203C17.7369 46.5597 17.9447 46.8838 18.3553 46.8838C18.5756 46.8734 18.7913 46.8169 18.9885 46.718C19.9828 46.2654 20.9767 45.8119 21.9702 45.3576L22.1347 45.2822C24.2556 44.3126 26.4496 43.3035 28.6348 42.3265C29.1295 42.1051 29.3088 41.8169 29.3051 41.2654C29.2928 39.3781 29.2928 37.4588 29.2928 35.6025C29.2928 34.158 29.2928 32.7152 29.2928 31.274C29.2844 31.0948 29.3198 30.9163 29.3959 30.7538C29.4719 30.5914 29.5864 30.4498 29.7293 30.3415C34.6217 26.2504 39.8704 21.8539 46.2382 16.5052C46.4373 16.3382 46.6265 16.144 46.8095 15.9573C46.9313 15.8331 47 15.6672 47 15.4933V9.09482C47 8.30335 46.7242 7.42027 45.9327 7.42027Z" fill="url(#paint2_linear_2226_758)"/>
<path d="M28.362 9.64631C28.362 9.8615 28.247 10.0928 28.0256 10.3141C26.0279 12.3118 24.0286 14.3071 22.0276 16.2998C21.7802 16.5472 21.5861 16.6548 21.403 16.6548C21.22 16.6548 21.0234 16.5435 20.7847 16.3048C20.2269 15.7544 19.5702 15.1027 18.9197 14.441C18.5722 14.0898 18.5376 13.6904 18.8282 13.3973C18.8866 13.3347 18.957 13.2845 19.0352 13.2497C19.1134 13.2149 19.1977 13.1961 19.2833 13.1944C19.5103 13.2074 19.7231 13.3091 19.8757 13.4776C20.1861 13.7819 20.4817 14.0873 20.7958 14.4101C20.9343 14.5536 21.0753 14.6983 21.2188 14.8442C21.3154 14.9429 21.474 14.9435 21.5714 14.8456L22.1166 14.2976C22.5025 13.9093 22.8747 13.5345 23.247 13.1623C24.5117 11.8901 25.7785 10.6237 27.0474 9.36311C27.2947 9.12195 27.5186 8.99951 27.7263 8.99951C27.8083 9.00274 27.8887 9.02223 27.963 9.05684C28.0373 9.09145 28.104 9.14048 28.1592 9.2011C28.2219 9.25728 28.2723 9.32584 28.3072 9.40247C28.3421 9.47909 28.3608 9.56212 28.362 9.64631Z" fill="url(#paint3_linear_2226_758)"/>
<path d="M28.362 9.64631C28.362 9.8615 28.247 10.0928 28.0256 10.3141C26.0279 12.3118 24.0286 14.3071 22.0276 16.2998C21.7802 16.5472 21.5861 16.6548 21.403 16.6548C21.22 16.6548 21.0234 16.5435 20.7847 16.3048C20.2269 15.7544 19.5702 15.1027 18.9197 14.441C18.5722 14.0898 18.5376 13.6904 18.8282 13.3973C18.8866 13.3347 18.957 13.2845 19.0352 13.2497C19.1134 13.2149 19.1977 13.1961 19.2833 13.1944C19.5103 13.2074 19.7231 13.3091 19.8757 13.4776C20.1861 13.7819 20.4817 14.0873 20.7958 14.4101C20.9343 14.5536 21.0753 14.6983 21.2188 14.8442C21.3154 14.9429 21.474 14.9435 21.5714 14.8456L22.1166 14.2976C22.5025 13.9093 22.8747 13.5345 23.247 13.1623C24.5117 11.8901 25.7785 10.6237 27.0474 9.36311C27.2947 9.12195 27.5186 8.99951 27.7263 8.99951C27.8083 9.00274 27.8887 9.02223 27.963 9.05684C28.0373 9.09145 28.104 9.14048 28.1592 9.2011C28.2219 9.25728 28.2723 9.32584 28.3072 9.40247C28.3421 9.47909 28.3608 9.56212 28.362 9.64631Z" fill="url(#paint4_linear_2226_758)"/>
<path d="M28.362 9.64631C28.362 9.8615 28.247 10.0928 28.0256 10.3141C26.0279 12.3118 24.0286 14.3071 22.0276 16.2998C21.7802 16.5472 21.5861 16.6548 21.403 16.6548C21.22 16.6548 21.0234 16.5435 20.7847 16.3048C20.2269 15.7544 19.5702 15.1027 18.9197 14.441C18.5722 14.0898 18.5376 13.6904 18.8282 13.3973C18.8866 13.3347 18.957 13.2845 19.0352 13.2497C19.1134 13.2149 19.1977 13.1961 19.2833 13.1944C19.5103 13.2074 19.7231 13.3091 19.8757 13.4776C20.1861 13.7819 20.4817 14.0873 20.7958 14.4101C20.9343 14.5536 21.0753 14.6983 21.2188 14.8442C21.3154 14.9429 21.474 14.9435 21.5714 14.8456L22.1166 14.2976C22.5025 13.9093 22.8747 13.5345 23.247 13.1623C24.5117 11.8901 25.7785 10.6237 27.0474 9.36311C27.2947 9.12195 27.5186 8.99951 27.7263 8.99951C27.8083 9.00274 27.8887 9.02223 27.963 9.05684C28.0373 9.09145 28.104 9.14048 28.1592 9.2011C28.2219 9.25728 28.2723 9.32584 28.3072 9.40247C28.3421 9.47909 28.3608 9.56212 28.362 9.64631Z" fill="url(#paint5_linear_2226_758)"/>
<path d="M45.9327 7.42027H45.9191C43.5248 7.42893 41.1763 7.43017 39.3979 7.43017H32.5552V6.05123C32.5552 5.80389 32.5552 5.55655 32.5552 5.3092C32.5552 4.81452 32.5552 4.31983 32.5552 3.82515C32.5684 3.67865 32.5342 3.53178 32.4576 3.4062C32.381 3.28063 32.2661 3.18297 32.1298 3.12764C30.9178 2.56865 30.0274 1.68564 29.409 0.429139C29.3265 0.305681 29.2216 0.198725 29.0998 0.113777C29.0553 0.0766761 29.0096 0.0395748 28.965 0H18.0424C17.988 0.0593622 17.9323 0.123671 17.8767 0.174376C17.7135 0.327255 17.5713 0.501083 17.4537 0.691322C16.8514 1.79323 16.0773 2.55505 15.0681 3.02129C14.5944 3.24266 14.4151 3.53205 14.4312 4.05642C14.4535 4.77123 14.4485 5.47369 14.4436 6.21695C14.4436 6.52613 14.4436 6.83531 14.4436 7.15438V7.38935L14.0404 7.41038C13.8969 7.41903 13.7621 7.42769 13.6273 7.42769H7.34978C4.86151 7.42769 2.86793 7.42769 1.07718 7.4178H1.06234C0.533023 7.42027 0.221371 7.55384 0 7.87909V15.7631C0.0383381 15.8039 0.0754394 15.8448 0.112541 15.8868L0.126145 15.9016C0.244549 16.0416 0.373103 16.1726 0.510762 16.2937C6.73019 21.5188 11.9615 25.8967 17.2732 30.3341C17.4273 30.4511 17.5507 30.6039 17.6326 30.7793C17.7144 30.9547 17.7524 31.1474 17.7431 31.3408C17.7344 35.7793 17.7357 40.2673 17.7369 44.6082V45.9203C17.7369 46.5597 17.9447 46.8837 18.3553 46.8837C18.5756 46.8734 18.7913 46.8169 18.9885 46.718C19.9828 46.2654 20.9767 45.8119 21.9702 45.3576L22.1347 45.2822C24.2556 44.3126 26.4496 43.3035 28.6348 42.3265C29.1295 42.1051 29.3088 41.8169 29.3051 41.2654C29.2928 39.3781 29.2928 37.4588 29.2928 35.6025C29.2928 34.158 29.2928 32.7152 29.2928 31.274C29.2844 31.0948 29.3198 30.9163 29.3959 30.7538C29.4719 30.5914 29.5864 30.4498 29.7293 30.3415C34.6217 26.2504 39.8704 21.8539 46.2382 16.5052C46.4373 16.3382 46.6265 16.144 46.8095 15.9573C46.8726 15.893 46.9332 15.8336 47 15.7644V7.87909C46.7737 7.55384 46.462 7.42027 45.9327 7.42027ZM16.2405 3.93645C17.1246 3.40861 17.8626 2.66802 18.3874 1.7821C18.4588 1.64574 18.5685 1.53319 18.7029 1.45827C18.8374 1.38336 18.9908 1.34933 19.1443 1.36038H19.1517C20.3588 1.36038 21.5662 1.36244 22.774 1.36657C24.4424 1.36657 26.1676 1.36657 27.8681 1.37893C28.0074 1.38792 28.143 1.42789 28.265 1.49593C28.3869 1.56396 28.4921 1.65835 28.573 1.77221C29.1394 2.65613 29.8898 3.40742 30.7731 3.97479C30.8878 4.05429 30.9833 4.15839 31.0526 4.27948C31.1219 4.40058 31.1633 4.53563 31.1738 4.67477C31.1886 7.71956 31.1911 10.9449 31.18 14.5338C31.1738 16.6053 30.3947 18.4913 28.7981 20.2932C27.5168 21.7389 25.893 22.9608 23.8327 24.0281C23.7252 24.082 23.6066 24.11 23.4864 24.1097C23.3973 24.1116 23.3091 24.0921 23.2292 24.0528C20.3254 22.5477 18.3565 20.8522 17.0332 18.7152C16.2177 17.413 15.792 15.9045 15.8064 14.3681C15.8138 13.3367 15.8064 12.2867 15.8064 11.2763V11.0772C15.8064 10.6765 15.8064 10.2771 15.8064 9.87638V8.59144C15.8064 7.33123 15.8064 6.02897 15.799 4.74032C15.7849 4.5777 15.8194 4.41456 15.898 4.27149C15.9765 4.12842 16.0957 4.01184 16.2405 3.93645ZM1.38759 8.79302H7.42027C9.13683 8.79302 11.3975 8.79302 13.6582 8.78313C13.8821 8.78313 14.1121 8.80539 14.2766 8.96863C14.4003 9.09231 14.4572 9.28276 14.4522 9.56597C14.4337 10.6332 14.4361 11.7216 14.4398 12.774V12.7925C14.4398 13.2576 14.4398 13.7238 14.4398 14.1888C14.4398 14.284 14.4337 14.378 14.4262 14.4757L14.4176 14.5994L14.4027 14.8319H1.38759V8.79302ZM27.3746 41.4026C25.5196 42.2349 23.6435 43.092 21.8267 43.9206L21.8082 43.9292L19.9197 44.7949C19.8369 44.832 19.7528 44.8667 19.6563 44.9062L19.4869 44.9755L19.1443 45.1177V31.1181H27.8854L27.9002 31.3506C27.9002 31.4026 27.9064 31.4533 27.9114 31.5077C27.92 31.6153 27.9274 31.7167 27.9274 31.8231V34.0825C27.9274 36.0835 27.9274 38.3517 27.9373 40.5221C27.9386 40.9673 27.7766 41.2221 27.3746 41.4026ZM43.8884 16.7166L43.7054 16.8564C43.6349 16.9096 43.5644 16.964 43.4964 17.0209L40.7756 19.2977C37.0259 22.4401 32.7753 26.0006 28.6781 29.4201C28.4478 29.6064 28.1629 29.7123 27.8668 29.7219C26.3914 29.7306 24.9247 29.7343 23.5074 29.7343C22.0345 29.7343 20.5678 29.7343 19.1468 29.7207C18.8368 29.7085 18.539 29.5971 18.2972 29.4028C13.9353 25.7632 9.43859 21.9962 5.47121 18.6743L3.55307 17.0666C3.47516 17.0011 3.40343 16.9331 3.32057 16.8539L3.31068 16.844L3.16351 16.703L2.70345 16.2751H14.5561L14.613 16.4446C14.6625 16.5967 14.7107 16.7488 14.7602 16.9021C14.8566 17.2088 14.9556 17.5205 15.073 17.8284C15.9152 19.989 17.4228 21.8243 19.6736 23.4382C20.642 24.132 21.7129 24.7293 22.7493 25.3068L23.0944 25.4998C23.2288 25.5648 23.3766 25.5978 23.526 25.5962C23.614 25.5995 23.7017 25.5839 23.7832 25.5505C27.1805 23.9427 29.4832 22.0357 31.0303 19.5586C31.4323 18.9155 31.734 18.2118 32.0543 17.4648C32.2015 17.1198 32.3549 16.7624 32.5218 16.4062L32.5874 16.2628H44.5216L43.8884 16.7166ZM45.6075 14.8319H32.5552V12.095C32.5552 11.2046 32.5552 10.3146 32.5552 9.42498C32.5437 9.33718 32.5504 9.24795 32.5749 9.16285C32.5993 9.07775 32.6411 8.99859 32.6974 8.9303C32.7526 8.8798 32.8174 8.84105 32.888 8.81639C32.9586 8.79173 33.0334 8.78167 33.108 8.78684C35.7826 8.79179 38.4584 8.79467 41.1355 8.7955H45.2092C45.2767 8.79806 45.3429 8.81492 45.4034 8.84496C45.4145 8.84496 45.4269 8.85486 45.4405 8.85857L45.605 8.91793L45.6075 14.8319Z" fill="#19373D"/>
<path d="M45.9327 7.42027H45.9191C43.5248 7.42893 41.1763 7.43017 39.3979 7.43017H32.5552V6.05123C32.5552 5.80389 32.5552 5.55655 32.5552 5.3092C32.5552 4.81452 32.5552 4.31983 32.5552 3.82515C32.5684 3.67865 32.5342 3.53178 32.4576 3.4062C32.381 3.28063 32.2661 3.18297 32.1298 3.12764C30.9178 2.56865 30.0274 1.68564 29.409 0.429139C29.3265 0.305681 29.2216 0.198725 29.0998 0.113777C29.0553 0.0766761 29.0096 0.0395748 28.965 0H18.0424C17.988 0.0593622 17.9323 0.123671 17.8767 0.174376C17.7135 0.327255 17.5713 0.501083 17.4537 0.691322C16.8514 1.79323 16.0773 2.55505 15.0681 3.02129C14.5944 3.24266 14.4151 3.53205 14.4312 4.05642C14.4535 4.77123 14.4485 5.47369 14.4436 6.21695C14.4436 6.52613 14.4436 6.83531 14.4436 7.15438V7.38935L14.0404 7.41038C13.8969 7.41903 13.7621 7.42769 13.6273 7.42769H7.34978C4.86151 7.42769 2.86793 7.42769 1.07718 7.4178H1.06234C0.533023 7.42027 0.221371 7.55384 0 7.87909V15.7631C0.0383381 15.8039 0.0754394 15.8448 0.112541 15.8868L0.126145 15.9016C0.244549 16.0416 0.373103 16.1726 0.510762 16.2937C6.73019 21.5188 11.9615 25.8967 17.2732 30.3341C17.4273 30.4511 17.5507 30.6039 17.6326 30.7793C17.7144 30.9547 17.7524 31.1474 17.7431 31.3408C17.7344 35.7793 17.7357 40.2673 17.7369 44.6082V45.9203C17.7369 46.5597 17.9447 46.8837 18.3553 46.8837C18.5756 46.8734 18.7913 46.8169 18.9885 46.718C19.9828 46.2654 20.9767 45.8119 21.9702 45.3576L22.1347 45.2822C24.2556 44.3126 26.4496 43.3035 28.6348 42.3265C29.1295 42.1051 29.3088 41.8169 29.3051 41.2654C29.2928 39.3781 29.2928 37.4588 29.2928 35.6025C29.2928 34.158 29.2928 32.7152 29.2928 31.274C29.2844 31.0948 29.3198 30.9163 29.3959 30.7538C29.4719 30.5914 29.5864 30.4498 29.7293 30.3415C34.6217 26.2504 39.8704 21.8539 46.2382 16.5052C46.4373 16.3382 46.6265 16.144 46.8095 15.9573C46.8726 15.893 46.9332 15.8336 47 15.7644V7.87909C46.7737 7.55384 46.462 7.42027 45.9327 7.42027ZM16.2405 3.93645C17.1246 3.40861 17.8626 2.66802 18.3874 1.7821C18.4588 1.64574 18.5685 1.53319 18.7029 1.45827C18.8374 1.38336 18.9908 1.34933 19.1443 1.36038H19.1517C20.3588 1.36038 21.5662 1.36244 22.774 1.36657C24.4424 1.36657 26.1676 1.36657 27.8681 1.37893C28.0074 1.38792 28.143 1.42789 28.265 1.49593C28.3869 1.56396 28.4921 1.65835 28.573 1.77221C29.1394 2.65613 29.8898 3.40742 30.7731 3.97479C30.8878 4.05429 30.9833 4.15839 31.0526 4.27948C31.1219 4.40058 31.1633 4.53563 31.1738 4.67477C31.1886 7.71956 31.1911 10.9449 31.18 14.5338C31.1738 16.6053 30.3947 18.4913 28.7981 20.2932C27.5168 21.7389 25.893 22.9608 23.8327 24.0281C23.7252 24.082 23.6066 24.11 23.4864 24.1097C23.3973 24.1116 23.3091 24.0921 23.2292 24.0528C20.3254 22.5477 18.3565 20.8522 17.0332 18.7152C16.2177 17.413 15.792 15.9045 15.8064 14.3681C15.8138 13.3367 15.8064 12.2867 15.8064 11.2763V11.0772C15.8064 10.6765 15.8064 10.2771 15.8064 9.87638V8.59144C15.8064 7.33123 15.8064 6.02897 15.799 4.74032C15.7849 4.5777 15.8194 4.41456 15.898 4.27149C15.9765 4.12842 16.0957 4.01184 16.2405 3.93645ZM1.38759 8.79302H7.42027C9.13683 8.79302 11.3975 8.79302 13.6582 8.78313C13.8821 8.78313 14.1121 8.80539 14.2766 8.96863C14.4003 9.09231 14.4572 9.28276 14.4522 9.56597C14.4337 10.6332 14.4361 11.7216 14.4398 12.774V12.7925C14.4398 13.2576 14.4398 13.7238 14.4398 14.1888C14.4398 14.284 14.4337 14.378 14.4262 14.4757L14.4176 14.5994L14.4027 14.8319H1.38759V8.79302ZM27.3746 41.4026C25.5196 42.2349 23.6435 43.092 21.8267 43.9206L21.8082 43.9292L19.9197 44.7949C19.8369 44.832 19.7528 44.8667 19.6563 44.9062L19.4869 44.9755L19.1443 45.1177V31.1181H27.8854L27.9002 31.3506C27.9002 31.4026 27.9064 31.4533 27.9114 31.5077C27.92 31.6153 27.9274 31.7167 27.9274 31.8231V34.0825C27.9274 36.0835 27.9274 38.3517 27.9373 40.5221C27.9386 40.9673 27.7766 41.2221 27.3746 41.4026ZM43.8884 16.7166L43.7054 16.8564C43.6349 16.9096 43.5644 16.964 43.4964 17.0209L40.7756 19.2977C37.0259 22.4401 32.7753 26.0006 28.6781 29.4201C28.4478 29.6064 28.1629 29.7123 27.8668 29.7219C26.3914 29.7306 24.9247 29.7343 23.5074 29.7343C22.0345 29.7343 20.5678 29.7343 19.1468 29.7207C18.8368 29.7085 18.539 29.5971 18.2972 29.4028C13.9353 25.7632 9.43859 21.9962 5.47121 18.6743L3.55307 17.0666C3.47516 17.0011 3.40343 16.9331 3.32057 16.8539L3.31068 16.844L3.16351 16.703L2.70345 16.2751H14.5561L14.613 16.4446C14.6625 16.5967 14.7107 16.7488 14.7602 16.9021C14.8566 17.2088 14.9556 17.5205 15.073 17.8284C15.9152 19.989 17.4228 21.8243 19.6736 23.4382C20.642 24.132 21.7129 24.7293 22.7493 25.3068L23.0944 25.4998C23.2288 25.5648 23.3766 25.5978 23.526 25.5962C23.614 25.5995 23.7017 25.5839 23.7832 25.5505C27.1805 23.9427 29.4832 22.0357 31.0303 19.5586C31.4323 18.9155 31.734 18.2118 32.0543 17.4648C32.2015 17.1198 32.3549 16.7624 32.5218 16.4062L32.5874 16.2628H44.5216L43.8884 16.7166ZM45.6075 14.8319H32.5552V12.095C32.5552 11.2046 32.5552 10.3146 32.5552 9.42498C32.5437 9.33718 32.5504 9.24795 32.5749 9.16285C32.5993 9.07775 32.6411 8.99859 32.6974 8.9303C32.7526 8.8798 32.8174 8.84105 32.888 8.81639C32.9586 8.79173 33.0334 8.78167 33.108 8.78684C35.7826 8.79179 38.4584 8.79467 41.1355 8.7955H45.2092C45.2767 8.79806 45.3429 8.81492 45.4034 8.84496C45.4145 8.84496 45.4269 8.85486 45.4405 8.85857L45.605 8.91793L45.6075 14.8319Z" fill="#19373D"/>
<path d="M45.9327 7.42027H45.9191C43.5248 7.42893 41.1763 7.43017 39.3979 7.43017H32.5552V6.05123C32.5552 5.80389 32.5552 5.55655 32.5552 5.3092C32.5552 4.81452 32.5552 4.31983 32.5552 3.82515C32.5684 3.67865 32.5342 3.53178 32.4576 3.4062C32.381 3.28063 32.2661 3.18297 32.1298 3.12764C30.9178 2.56865 30.0274 1.68564 29.409 0.429139C29.3265 0.305681 29.2216 0.198725 29.0998 0.113777C29.0553 0.0766761 29.0096 0.0395748 28.965 0H18.0424C17.988 0.0593622 17.9323 0.123671 17.8767 0.174376C17.7135 0.327255 17.5713 0.501083 17.4537 0.691322C16.8514 1.79323 16.0773 2.55505 15.0681 3.02129C14.5944 3.24266 14.4151 3.53205 14.4312 4.05642C14.4535 4.77123 14.4485 5.47369 14.4436 6.21695C14.4436 6.52613 14.4436 6.83531 14.4436 7.15438V7.38935L14.0404 7.41038C13.8969 7.41903 13.7621 7.42769 13.6273 7.42769H7.34978C4.86151 7.42769 2.86793 7.42769 1.07718 7.4178H1.06234C0.533023 7.42027 0.221371 7.55384 0 7.87909V15.7631C0.0383381 15.8039 0.0754394 15.8448 0.112541 15.8868L0.126145 15.9016C0.244549 16.0416 0.373103 16.1726 0.510762 16.2937C6.73019 21.5188 11.9615 25.8967 17.2732 30.3341C17.4273 30.4511 17.5507 30.6039 17.6326 30.7793C17.7144 30.9547 17.7524 31.1474 17.7431 31.3408C17.7344 35.7793 17.7357 40.2673 17.7369 44.6082V45.9203C17.7369 46.5597 17.9447 46.8837 18.3553 46.8837C18.5756 46.8734 18.7913 46.8169 18.9885 46.718C19.9828 46.2654 20.9767 45.8119 21.9702 45.3576L22.1347 45.2822C24.2556 44.3126 26.4496 43.3035 28.6348 42.3265C29.1295 42.1051 29.3088 41.8169 29.3051 41.2654C29.2928 39.3781 29.2928 37.4588 29.2928 35.6025C29.2928 34.158 29.2928 32.7152 29.2928 31.274C29.2844 31.0948 29.3198 30.9163 29.3959 30.7538C29.4719 30.5914 29.5864 30.4498 29.7293 30.3415C34.6217 26.2504 39.8704 21.8539 46.2382 16.5052C46.4373 16.3382 46.6265 16.144 46.8095 15.9573C46.8726 15.893 46.9332 15.8336 47 15.7644V7.87909C46.7737 7.55384 46.462 7.42027 45.9327 7.42027ZM16.2405 3.93645C17.1246 3.40861 17.8626 2.66802 18.3874 1.7821C18.4588 1.64574 18.5685 1.53319 18.7029 1.45827C18.8374 1.38336 18.9908 1.34933 19.1443 1.36038H19.1517C20.3588 1.36038 21.5662 1.36244 22.774 1.36657C24.4424 1.36657 26.1676 1.36657 27.8681 1.37893C28.0074 1.38792 28.143 1.42789 28.265 1.49593C28.3869 1.56396 28.4921 1.65835 28.573 1.77221C29.1394 2.65613 29.8898 3.40742 30.7731 3.97479C30.8878 4.05429 30.9833 4.15839 31.0526 4.27948C31.1219 4.40058 31.1633 4.53563 31.1738 4.67477C31.1886 7.71956 31.1911 10.9449 31.18 14.5338C31.1738 16.6053 30.3947 18.4913 28.7981 20.2932C27.5168 21.7389 25.893 22.9608 23.8327 24.0281C23.7252 24.082 23.6066 24.11 23.4864 24.1097C23.3973 24.1116 23.3091 24.0921 23.2292 24.0528C20.3254 22.5477 18.3565 20.8522 17.0332 18.7152C16.2177 17.413 15.792 15.9045 15.8064 14.3681C15.8138 13.3367 15.8064 12.2867 15.8064 11.2763V11.0772C15.8064 10.6765 15.8064 10.2771 15.8064 9.87638V8.59144C15.8064 7.33123 15.8064 6.02897 15.799 4.74032C15.7849 4.5777 15.8194 4.41456 15.898 4.27149C15.9765 4.12842 16.0957 4.01184 16.2405 3.93645ZM1.38759 8.79302H7.42027C9.13683 8.79302 11.3975 8.79302 13.6582 8.78313C13.8821 8.78313 14.1121 8.80539 14.2766 8.96863C14.4003 9.09231 14.4572 9.28276 14.4522 9.56597C14.4337 10.6332 14.4361 11.7216 14.4398 12.774V12.7925C14.4398 13.2576 14.4398 13.7238 14.4398 14.1888C14.4398 14.284 14.4337 14.378 14.4262 14.4757L14.4176 14.5994L14.4027 14.8319H1.38759V8.79302ZM27.3746 41.4026C25.5196 42.2349 23.6435 43.092 21.8267 43.9206L21.8082 43.9292L19.9197 44.7949C19.8369 44.832 19.7528 44.8667 19.6563 44.9062L19.4869 44.9755L19.1443 45.1177V31.1181H27.8854L27.9002 31.3506C27.9002 31.4026 27.9064 31.4533 27.9114 31.5077C27.92 31.6153 27.9274 31.7167 27.9274 31.8231V34.0825C27.9274 36.0835 27.9274 38.3517 27.9373 40.5221C27.9386 40.9673 27.7766 41.2221 27.3746 41.4026ZM43.8884 16.7166L43.7054 16.8564C43.6349 16.9096 43.5644 16.964 43.4964 17.0209L40.7756 19.2977C37.0259 22.4401 32.7753 26.0006 28.6781 29.4201C28.4478 29.6064 28.1629 29.7123 27.8668 29.7219C26.3914 29.7306 24.9247 29.7343 23.5074 29.7343C22.0345 29.7343 20.5678 29.7343 19.1468 29.7207C18.8368 29.7085 18.539 29.5971 18.2972 29.4028C13.9353 25.7632 9.43859 21.9962 5.47121 18.6743L3.55307 17.0666C3.47516 17.0011 3.40343 16.9331 3.32057 16.8539L3.31068 16.844L3.16351 16.703L2.70345 16.2751H14.5561L14.613 16.4446C14.6625 16.5967 14.7107 16.7488 14.7602 16.9021C14.8566 17.2088 14.9556 17.5205 15.073 17.8284C15.9152 19.989 17.4228 21.8243 19.6736 23.4382C20.642 24.132 21.7129 24.7293 22.7493 25.3068L23.0944 25.4998C23.2288 25.5648 23.3766 25.5978 23.526 25.5962C23.614 25.5995 23.7017 25.5839 23.7832 25.5505C27.1805 23.9427 29.4832 22.0357 31.0303 19.5586C31.4323 18.9155 31.734 18.2118 32.0543 17.4648C32.2015 17.1198 32.3549 16.7624 32.5218 16.4062L32.5874 16.2628H44.5216L43.8884 16.7166ZM45.6075 14.8319H32.5552V12.095C32.5552 11.2046 32.5552 10.3146 32.5552 9.42498C32.5437 9.33718 32.5504 9.24795 32.5749 9.16285C32.5993 9.07775 32.6411 8.99859 32.6974 8.9303C32.7526 8.8798 32.8174 8.84105 32.888 8.81639C32.9586 8.79173 33.0334 8.78167 33.108 8.78684C35.7826 8.79179 38.4584 8.79467 41.1355 8.7955H45.2092C45.2767 8.79806 45.3429 8.81492 45.4034 8.84496C45.4145 8.84496 45.4269 8.85486 45.4405 8.85857L45.605 8.91793L45.6075 14.8319Z" fill="#19373D"/>
<path d="M28.362 9.64631C28.362 9.8615 28.247 10.0928 28.0256 10.3141C26.0279 12.3118 24.0286 14.3071 22.0276 16.2998C21.7802 16.5472 21.5861 16.6548 21.403 16.6548C21.22 16.6548 21.0234 16.5435 20.7847 16.3048C20.2269 15.7544 19.5702 15.1027 18.9197 14.441C18.5722 14.0898 18.5376 13.6904 18.8282 13.3973C18.8866 13.3347 18.957 13.2845 19.0352 13.2497C19.1134 13.2149 19.1977 13.1961 19.2833 13.1944C19.5103 13.2074 19.7231 13.3091 19.8757 13.4776C20.1861 13.7819 20.4817 14.0873 20.7958 14.4101C20.9343 14.5536 21.0753 14.6983 21.2188 14.8442L21.3944 15.0235L22.1166 14.2976C22.5025 13.9093 22.8747 13.5345 23.247 13.1623C24.5117 11.8901 25.7785 10.6237 27.0474 9.36311C27.2947 9.12195 27.5186 8.99951 27.7263 8.99951C27.8083 9.00274 27.8887 9.02223 27.963 9.05684C28.0373 9.09145 28.104 9.14048 28.1592 9.2011C28.2219 9.25728 28.2723 9.32584 28.3072 9.40247C28.3421 9.47909 28.3608 9.56212 28.362 9.64631Z" fill="#19373D"/>
<path d="M28.362 9.64631C28.362 9.8615 28.247 10.0928 28.0256 10.3141C26.0279 12.3118 24.0286 14.3071 22.0276 16.2998C21.7802 16.5472 21.5861 16.6548 21.403 16.6548C21.22 16.6548 21.0234 16.5435 20.7847 16.3048C20.2269 15.7544 19.5702 15.1027 18.9197 14.441C18.5722 14.0898 18.5376 13.6904 18.8282 13.3973C18.8866 13.3347 18.957 13.2845 19.0352 13.2497C19.1134 13.2149 19.1977 13.1961 19.2833 13.1944C19.5103 13.2074 19.7231 13.3091 19.8757 13.4776C20.1861 13.7819 20.4817 14.0873 20.7958 14.4101C20.9343 14.5536 21.0753 14.6983 21.2188 14.8442L21.3944 15.0235L22.1166 14.2976C22.5025 13.9093 22.8747 13.5345 23.247 13.1623C24.5117 11.8901 25.7785 10.6237 27.0474 9.36311C27.2947 9.12195 27.5186 8.99951 27.7263 8.99951C27.8083 9.00274 27.8887 9.02223 27.963 9.05684C28.0373 9.09145 28.104 9.14048 28.1592 9.2011C28.2219 9.25728 28.2723 9.32584 28.3072 9.40247C28.3421 9.47909 28.3608 9.56212 28.362 9.64631Z" fill="#19373D"/>
<path d="M28.362 9.64631C28.362 9.8615 28.247 10.0928 28.0256 10.3141C26.0279 12.3118 24.0286 14.3071 22.0276 16.2998C21.7802 16.5472 21.5861 16.6548 21.403 16.6548C21.22 16.6548 21.0234 16.5435 20.7847 16.3048C20.2269 15.7544 19.5702 15.1027 18.9197 14.441C18.5722 14.0898 18.5376 13.6904 18.8282 13.3973C18.8866 13.3347 18.957 13.2845 19.0352 13.2497C19.1134 13.2149 19.1977 13.1961 19.2833 13.1944C19.5103 13.2074 19.7231 13.3091 19.8757 13.4776C20.1861 13.7819 20.4817 14.0873 20.7958 14.4101C20.9343 14.5536 21.0753 14.6983 21.2188 14.8442L21.3944 15.0235L22.1166 14.2976C22.5025 13.9093 22.8747 13.5345 23.247 13.1623C24.5117 11.8901 25.7785 10.6237 27.0474 9.36311C27.2947 9.12195 27.5186 8.99951 27.7263 8.99951C27.8083 9.00274 27.8887 9.02223 27.963 9.05684C28.0373 9.09145 28.104 9.14048 28.1592 9.2011C28.2219 9.25728 28.2723 9.32584 28.3072 9.40247C28.3421 9.47909 28.3608 9.56212 28.362 9.64631Z" fill="#19373D"/>
<defs>
<linearGradient id="paint0_linear_2226_758" x1="50.1597" y1="-2.54803" x2="-12.392" y2="33.9455" gradientUnits="userSpaceOnUse">
<stop stop-color="#39B3AB"/>
<stop offset="1" stop-color="#4095C1"/>
</linearGradient>
<linearGradient id="paint1_linear_2226_758" x1="50.1597" y1="-2.54803" x2="-12.392" y2="33.9455" gradientUnits="userSpaceOnUse">
<stop stop-color="#39B3AB"/>
<stop offset="1" stop-color="#4095C1"/>
</linearGradient>
<linearGradient id="paint2_linear_2226_758" x1="50.1597" y1="-2.54803" x2="-12.392" y2="33.9455" gradientUnits="userSpaceOnUse">
<stop stop-color="#39B3AB"/>
<stop offset="1" stop-color="#4095C1"/>
</linearGradient>
<linearGradient id="paint3_linear_2226_758" x1="29.0161" y1="8.58347" x2="17.7974" y2="16.8817" gradientUnits="userSpaceOnUse">
<stop stop-color="#39B3AB"/>
<stop offset="1" stop-color="#4095C1"/>
</linearGradient>
<linearGradient id="paint4_linear_2226_758" x1="29.0161" y1="8.58347" x2="17.7974" y2="16.8817" gradientUnits="userSpaceOnUse">
<stop stop-color="#39B3AB"/>
<stop offset="1" stop-color="#4095C1"/>
</linearGradient>
<linearGradient id="paint5_linear_2226_758" x1="29.0161" y1="8.58347" x2="17.7974" y2="16.8817" gradientUnits="userSpaceOnUse">
<stop stop-color="#39B3AB"/>
<stop offset="1" stop-color="#4095C1"/>
</linearGradient>
</defs>
</svg>
