<svg width="42" height="50" viewBox="0 0 42 50" fill="none" xmlns="http://www.w3.org/2000/svg">
<path d="M40.1462 5.67C38.8539 5.34 37.5417 6.1 37.164 7.4C36.9453 8.13 37.1043 8.81 37.4622 9.45C36.657 10.26 35.8617 11.06 35.0963 11.86C34.8179 12.16 34.4998 12.3 34.0823 12.3C32.3824 12.27 30.7024 12.29 29.0026 12.29C28.8435 12.29 28.6844 12.27 28.5155 12.26V7.44C28.8932 7.44 29.2312 7.46 29.5592 7.44C29.9569 7.4 30.2054 7.51 30.4042 7.92C30.951 9.02 32.2333 9.46 33.3865 9.04C34.4899 8.64 35.146 7.5 34.967 6.33C34.7881 5.27 33.9928 4.45 32.959 4.28C31.8357 4.1 30.8317 4.61 30.3147 5.62C30.2352 5.75 30.1259 5.94 30.0165 5.95C29.5095 5.99 29.0026 5.96 28.4956 5.96C28.4657 5.79 28.4558 5.69 28.4558 5.6C28.4459 5.46 28.4359 5.33 28.416 5.2C28.416 5.2 28.416 5.19 28.4061 5.18C28.2172 3.43 27.3524 2.05 25.901 1.01C25.1157 0.45 24.221 0.21 23.3065 0C22.8591 0 22.4118 0 21.9247 0C21.8452 0.02 21.7656 0.06 21.696 0.07C19.8073 0.41 18.3758 1.4 17.4613 3.12C17.3121 3.4 17.1332 3.4 16.8747 3.41C14.3299 3.49 12.4411 4.66 11.3178 6.96C10.95 7.71 10.8208 8.58 10.5623 9.43C8.38527 9.22 6.45675 9.93 5.02528 11.72C3.60374 13.51 3.33533 15.56 4.03119 17.74C3.89202 17.85 3.77273 17.95 3.63356 18.04C1.66528 19.4 0.422671 21.28 0.094624 23.67C-0.362654 27.1 0.840186 29.87 3.6435 31.9C3.97155 32.15 4.07096 32.32 3.94172 32.72C3.62362 33.65 3.60374 34.6 3.78267 35.56C3.99143 36.64 4.44871 37.62 5.17439 38.46C5.44279 38.78 5.85036 38.85 6.14859 38.63C7.15261 39.67 7.56019 40.22 8.98172 40.48C9.439 40.57 10.0056 40.62 10.7313 40.65C10.7611 40.7 10.781 40.74 10.781 40.76C10.781 40.8 10.791 40.85 10.791 40.89C11.0693 44.26 13.9621 46.73 17.0934 46.61C17.2525 46.61 17.4712 46.78 17.5507 46.93C17.9881 47.68 18.5448 48.33 19.2407 48.85C20.0658 49.49 21.03 49.77 22.0241 50H23.386C23.386 50 23.4655 49.95 23.5152 49.94C26.7758 49.26 28.5254 47.09 28.5254 43.72V42.52C29.8376 42.52 31.1001 42.51 32.3427 42.53C32.5315 42.53 32.7304 42.7 32.8795 42.83C33.3268 43.25 33.7344 43.71 34.1917 44.13C34.3905 44.31 34.4302 44.47 34.301 44.71C34.0127 45.25 34.0127 45.81 34.1718 46.37C34.5396 47.67 35.8915 48.44 37.164 48.07C38.496 47.68 39.2615 46.36 38.9136 45.04C38.5457 43.71 37.2236 42.93 35.8915 43.3C35.5933 43.38 35.4243 43.32 35.2156 43.11C34.7682 42.65 34.301 42.2 33.8437 41.74C33.3765 41.25 32.8198 41.03 32.1538 41.03H28.5453V37.19C28.6049 37.17 28.6347 37.14 28.6646 37.14C30.6229 37.13 32.6011 37.13 34.5595 37.14C34.6986 37.14 34.8776 37.31 34.9472 37.46C35.5039 38.53 36.6073 39.08 37.7207 38.81C38.8738 38.53 39.6591 37.55 39.6492 36.39C39.6492 35.25 38.8738 34.27 37.8002 34C36.6371 33.71 35.4939 34.23 34.977 35.33C34.8378 35.6 34.6986 35.66 34.4302 35.66C32.5912 35.64 30.7621 35.64 28.9131 35.64C28.7839 35.64 28.6646 35.62 28.5453 35.61V30.76C30.9211 30.76 33.2572 30.76 35.5933 30.76C35.9214 30.76 36.0904 30.83 36.2494 31.16C36.7465 32.21 37.9095 32.71 39.013 32.44C40.1263 32.16 40.8818 31.18 40.8818 30.02C40.8818 28.86 40.1363 27.9 38.9931 27.62C37.9095 27.34 36.7465 27.87 36.2494 28.92C36.0904 29.26 35.8915 29.31 35.5834 29.31H28.5552V23.97C29.0523 23.97 29.4996 23.98 29.9469 23.96C30.2153 23.94 30.3247 24.04 30.444 24.28C30.9808 25.38 32.1439 25.93 33.2572 25.64C34.3706 25.35 35.1559 24.35 35.146 23.22C35.136 22.12 34.3408 21.1 33.2771 20.84C32.1538 20.54 31.0106 21.08 30.4539 22.12C30.3843 22.27 30.2253 22.47 30.096 22.48C29.5791 22.52 29.0721 22.49 28.5254 22.49V18.33C28.6049 18.3 28.6347 18.28 28.6844 18.28C31.2094 18.28 33.7145 18.26 36.2395 18.29C36.4482 18.3 36.7166 18.45 36.9055 18.61C37.333 19 37.7207 19.43 38.1481 19.84C38.5259 20.19 38.9136 20.21 39.2317 19.91C39.5299 19.62 39.5199 19.17 39.1521 18.79C38.7644 18.37 38.3469 18 37.9592 17.58C37.4423 17.05 36.8359 16.81 36.1003 16.81C33.7543 16.83 31.3884 16.81 29.0423 16.81C28.8733 16.81 28.7043 16.8 28.5254 16.79V13.78H29.0721C30.782 13.78 32.4918 13.77 34.2016 13.78C34.9372 13.79 35.5436 13.54 36.0506 13C36.7962 12.23 37.5715 11.49 38.3072 10.72C38.5259 10.5 38.6949 10.43 39.0229 10.5C40.3152 10.82 41.5976 9.98 41.9256 8.66C42.2437 7.36 41.4485 6.02 40.1462 5.69V5.67ZM32.5415 5.69C33.0485 5.71 33.5256 6.17 33.5356 6.69C33.5455 7.24 33.0882 7.72 32.5315 7.72C31.9749 7.72 31.5176 7.27 31.5176 6.7C31.5176 6.13 31.9947 5.68 32.5415 5.69ZM22.6504 19C21.865 18.87 21.5867 18.61 21.6762 18.1C21.7557 17.64 22.1334 17.47 22.8889 17.56C24.3502 17.75 25.5531 19.17 25.5531 20.73C25.5332 22.39 24.221 23.8 22.6106 23.89C22.0142 23.92 21.696 23.7 21.6563 23.24C21.6265 22.78 21.9048 22.52 22.5013 22.44C23.4556 22.3 24.0918 21.63 24.1117 20.74C24.1216 19.88 23.5152 19.15 22.6504 19ZM20.9604 31.47C21.8551 31.45 22.7597 31.45 23.6743 31.47C24.221 31.47 24.5192 31.74 24.5292 32.19C24.5292 32.62 24.221 32.9 23.6842 32.93C23.2269 32.93 22.7796 32.93 22.3323 32.93C21.8849 32.93 21.4177 32.93 20.9704 32.93C20.4037 32.92 20.0856 32.64 20.0956 32.17C20.1155 31.72 20.4037 31.48 20.9604 31.47ZM15.0854 41.98C14.6082 42.01 14.2603 41.75 14.2205 41.33C14.1907 40.92 14.4492 40.61 14.9164 40.56C15.483 40.48 16.0198 40.34 16.4373 39.92C17.6104 38.78 17.1133 36.76 15.5427 36.29C15.324 36.23 15.0953 36.22 14.8766 36.18C14.4492 36.11 14.2007 35.82 14.2205 35.42C14.2504 35.01 14.5784 34.73 15.0257 34.73C16.7256 34.74 18.2963 36.13 18.4951 37.85C18.5249 38.04 18.5448 38.23 18.5547 38.34C18.4752 40.37 17.0239 41.86 15.0854 41.98ZM18.7635 17.26C19.191 17.29 19.4594 17.64 19.4295 18.17C19.3997 19.1 19.1313 19.96 18.6442 20.74C17.7197 22.22 16.1391 23.17 14.4194 23.34C14.141 23.18 13.7831 23.09 13.6042 22.86C13.2563 22.4 13.6042 21.89 14.2802 21.75C14.8866 21.63 15.5327 21.52 16.0695 21.23C17.1332 20.68 17.7197 19.74 17.9185 18.54C17.9384 18.38 17.9682 18.22 17.9782 18.05C18.0378 17.51 18.346 17.21 18.7635 17.26ZM17.1034 6.22C17.6899 6.2 18.008 6.44 18.0279 6.9C18.0478 7.34 17.7694 7.59 17.2127 7.67C16.1093 7.79 15.7216 8.14 15.4731 9.26C15.3637 9.71 15.0357 9.98 14.6579 9.92C14.2504 9.86 13.9919 9.5 14.0416 9.02C14.2106 7.45 15.5228 6.25 17.1034 6.22ZM9.86646 14.33C9.75711 14.32 9.62788 14.32 9.51853 14.3C9.06125 14.21 8.82267 13.91 8.88232 13.48C8.93202 13.09 9.2203 12.85 9.66764 12.86C11.2085 12.91 12.4411 13.57 13.2861 14.86C15.1649 17.76 13.2265 21.57 9.79687 21.75C9.24019 21.78 8.93202 21.57 8.88232 21.13C8.83261 20.65 9.1209 20.37 9.77699 20.29C11.119 20.16 12.0137 19.45 12.4312 18.17C12.9978 16.38 11.7254 14.5 9.86646 14.33ZM5.14456 23.73C5.12468 23.29 5.41297 22.95 5.82054 22.91C6.20823 22.88 6.5164 23.16 6.59593 23.62C6.84445 25.33 7.66953 26.04 9.37936 26.04C9.89628 26.04 10.4033 26.03 10.9301 26.04C11.4868 26.06 11.8149 26.36 11.8049 26.8C11.785 27.23 11.457 27.49 10.9301 27.51H9.86646C8.89226 27.54 7.928 27.51 7.06315 26.97C5.85036 26.23 5.23403 25.14 5.14456 23.73ZM9.44894 35.06C9.44894 35.15 9.42906 35.22 9.39924 35.31C9.28989 35.74 9.00161 35.95 8.60397 35.89C8.17652 35.82 8.00752 35.54 8.00752 35.13C7.98764 33.37 9.44894 31.61 11.2284 31.53C13.4452 31.43 15.6818 31.48 17.9086 31.48C18.346 31.48 18.6044 31.78 18.6243 32.19C18.6243 32.6 18.3559 32.9 17.8788 32.93C17.2923 32.95 16.6958 32.93 16.0894 32.93C15.5924 32.93 15.1053 32.93 14.6182 32.93C13.7036 32.93 12.7791 32.92 11.8646 32.93C10.4629 32.93 9.64776 33.66 9.44894 35.06ZM36.488 44.6C37.0347 44.62 37.4721 45.07 37.4721 45.6C37.4721 46.16 37.0248 46.61 36.4681 46.61C35.8915 46.6 35.4442 46.15 35.4641 45.6C35.4641 45.04 35.9412 44.59 36.488 44.6ZM37.1441 35.32C37.6908 35.32 38.1581 35.79 38.1481 36.34C38.1382 36.9 37.661 37.35 37.1143 37.34C36.5874 37.33 36.1401 36.88 36.1401 36.34C36.1301 35.79 36.5973 35.32 37.1441 35.32ZM38.3569 28.96C38.9036 28.94 39.3708 29.41 39.3808 29.96C39.4007 30.52 38.9334 30.99 38.3768 30.98C37.8499 30.98 37.3628 30.49 37.3628 29.96C37.3727 29.44 37.83 28.97 38.3569 28.96ZM32.6409 22.18C33.1777 22.18 33.6648 22.67 33.6549 23.2C33.6449 23.75 33.1678 24.2 32.6111 24.19C32.0444 24.19 31.6071 23.72 31.6269 23.16C31.6568 22.62 32.1041 22.18 32.6409 22.18ZM39.51 9.07C38.9434 9.07 38.4861 8.61 38.496 8.05C38.5159 7.51 38.9633 7.06 39.4901 7.05C40.0269 7.03 40.524 7.52 40.524 8.06C40.5339 8.61 40.0667 9.07 39.51 9.07Z" fill="url(#paint0_linear_1949_584)"/>
<defs>
<linearGradient id="paint0_linear_1949_584" x1="44.8189" y1="-2.71739" x2="-15.6489" y2="26.8396" gradientUnits="userSpaceOnUse">
<stop stop-color="#39B3AB"/>
<stop offset="1" stop-color="#4095C1"/>
</linearGradient>
</defs>
</svg>
