<svg width="48" height="52" viewBox="0 0 48 52" fill="none" xmlns="http://www.w3.org/2000/svg">
<path d="M24.2755 0.000593382C24.2755 0.000302433 24.2758 0.000100263 24.276 0.000194399C25.5619 0.439898 26.0971 1.35063 26.0085 2.68866C25.94 3.73106 26.7425 4.6079 27.7528 4.87358C34.2821 6.5975 38.9227 12.5437 38.998 19.2928C39.0193 21.2559 39.0102 23.22 39.002 25.1831C38.9827 29.7442 40.6659 33.5421 44.0751 36.5768C45.6321 37.9629 45.9567 39.9666 44.8862 41.602C44.1229 42.7682 43.0076 43.3219 41.6276 43.3422C40.6466 43.3565 39.6645 43.3453 38.6825 43.3453C27.8841 43.3453 17.0847 43.3432 6.28626 43.3483C4.52672 43.3483 3.20173 42.6431 2.47105 41.0128C1.81364 39.5463 2.18712 37.8692 3.42154 36.7498C4.68446 35.6059 5.81712 34.3624 6.67501 32.8827C8.02951 30.5461 8.67369 28.0264 8.66453 25.3245C8.65639 23.0063 8.56379 20.6779 8.74696 18.3718C9.17947 12.9223 11.9068 8.8791 16.641 6.18331C18.0779 5.36511 19.6329 4.84611 21.2652 4.58457C21.6041 4.53063 21.6764 4.38816 21.6641 4.08693C21.6458 3.6473 21.6865 3.20462 21.655 2.76702C21.5615 1.47217 22.0255 0.534058 23.2346 0.0492719C23.318 0.0158451 23.4075 0.00101766 23.4974 0.00101766H24.275C24.2753 0.00101766 24.2755 0.000827705 24.2755 0.000593382Z" fill="url(#paint0_linear_1272_1562)"/>
<path d="M0.00130992 20.7399C0.00102682 20.7399 0.000800439 20.7397 0.000811092 20.7394C0.266525 13.6832 2.79338 7.58142 7.7106 2.49222C8.74454 1.42266 10.0512 1.33616 10.9803 2.249C11.8912 3.14454 11.8423 4.4502 10.8318 5.49229C8.33951 8.05883 6.5179 11.0294 5.42188 14.4375C4.7665 16.4769 4.40218 18.5692 4.35638 20.7145C4.34926 21.035 4.35231 21.3597 4.30754 21.6762C4.13759 22.8648 3.18811 23.6352 2.00253 23.567C0.892263 23.5029 0.0241977 22.5636 0.00180918 21.3994C-0.00225839 21.1797 0.00180302 20.9601 0.00180917 20.7404C0.00180918 20.7401 0.00158565 20.7399 0.00130992 20.7399Z" fill="url(#paint1_linear_1272_1562)"/>
<path d="M47.652 20.7226C47.652 20.8956 47.6683 21.2345 47.6489 21.5713C47.5869 22.6806 46.6608 23.5548 45.5454 23.57C44.3955 23.5863 43.4104 22.7355 43.3646 21.6049C43.2872 19.709 43.1397 17.8263 42.6817 15.9762C41.7211 12.101 39.8689 8.71522 37.1355 5.81081C36.6592 5.30504 36.1443 4.83081 36.0598 4.08181C35.954 3.14251 36.419 2.26019 37.2393 1.85313C38.0911 1.42978 39.0436 1.58039 39.759 2.2897C41.2926 3.80806 42.6115 5.49839 43.7391 7.33833C46.156 11.2818 47.5329 15.9355 47.652 20.7226Z" fill="url(#paint2_linear_1272_1562)"/>
<path d="M20.6017 51.3374C16.8319 49.7005 19.5922 45.5251 23.7021 45.5251C27.9107 45.5251 30.7198 49.9058 26.8033 51.4463C25.7843 51.8471 24.64 52.053 23.398 51.9883C22.3732 51.9349 21.4378 51.7004 20.6017 51.3374Z" fill="url(#paint3_linear_1272_1562)"/>
<defs>
<linearGradient id="paint0_linear_1272_1562" x1="48.4268" y1="-2.35595" x2="-9.34643" y2="31.2753" gradientUnits="userSpaceOnUse">
<stop stop-color="#39B3AB"/>
<stop offset="1" stop-color="#4095C1"/>
</linearGradient>
<linearGradient id="paint1_linear_1272_1562" x1="12.4102" y1="0.429184" x2="-6.53283" y2="6.26978" gradientUnits="userSpaceOnUse">
<stop stop-color="#39B3AB"/>
<stop offset="1" stop-color="#4095C1"/>
</linearGradient>
<linearGradient id="paint2_linear_1272_1562" x1="48.4391" y1="0.425114" x2="29.5158" y2="6.25132" gradientUnits="userSpaceOnUse">
<stop stop-color="#39B3AB"/>
<stop offset="1" stop-color="#4095C1"/>
</linearGradient>
<linearGradient id="paint3_linear_1272_1562" x1="32.8184" y1="45.1732" x2="23.4789" y2="58.4512" gradientUnits="userSpaceOnUse">
<stop stop-color="#39B3AB"/>
<stop offset="1" stop-color="#4095C1"/>
</linearGradient>
</defs>
</svg>
