<svg width="21" height="17" viewBox="0 0 21 17" fill="none" xmlns="http://www.w3.org/2000/svg">
<path d="M2.83366 16.1667C2.30658 16.1667 1.85536 15.979 1.48001 15.6037C1.10467 15.2283 0.916992 14.7771 0.916992 14.25V2.75001C0.916992 2.22293 1.10467 1.77171 1.48001 1.39636C1.85536 1.02102 2.30658 0.833344 2.83366 0.833344H18.167C18.6941 0.833344 19.1453 1.02102 19.5206 1.39636C19.896 1.77171 20.0837 2.22293 20.0837 2.75001V14.25C20.0837 14.7771 19.896 15.2283 19.5206 15.6037C19.1453 15.979 18.6941 16.1667 18.167 16.1667H2.83366ZM10.5003 9.29064C10.5802 9.29064 10.664 9.27866 10.7519 9.2547C10.8397 9.23074 10.9236 9.1948 11.0035 9.14689L17.7837 4.90626C17.9114 4.8264 18.0073 4.72657 18.0712 4.60678C18.135 4.48699 18.167 4.35522 18.167 4.21147C18.167 3.89202 18.0312 3.65244 17.7597 3.49272C17.4882 3.333 17.2087 3.34098 16.9212 3.51668L10.5003 7.54168L4.07949 3.51668C3.79199 3.34098 3.51248 3.33699 3.24095 3.5047C2.96942 3.67241 2.83366 3.908 2.83366 4.21147C2.83366 4.37119 2.8656 4.51095 2.92949 4.63074C2.99338 4.75053 3.08921 4.84237 3.21699 4.90626L9.9972 9.14689C10.0771 9.1948 10.1609 9.23074 10.2488 9.2547C10.3366 9.27866 10.4205 9.29064 10.5003 9.29064Z" fill="#163036"/>
</svg>
