<svg width="101" height="102" viewBox="0 0 101 102" fill="none" xmlns="http://www.w3.org/2000/svg">
<mask id="mask0_1302_1057" style="mask-type:alpha" maskUnits="userSpaceOnUse" x="0" y="0" width="101" height="102">
<rect x="7.41504" y="0.968262" width="93.7566" height="93.7566" transform="rotate(4.3979 7.41504 0.968262)" fill="#163036"/>
</mask>
<g mask="url(#mask0_1302_1057)">
<path d="M21.1985 76.4716C20.0949 76.3867 19.1985 75.9423 18.5094 75.1383C17.8203 74.3344 17.5181 73.3806 17.603 72.277C17.6879 71.1734 18.1323 70.2771 18.9363 69.5879C19.7402 68.8988 20.694 68.5967 21.7976 68.6816L25.6926 68.9811L27.7895 41.7159C28.2039 36.3278 30.1951 31.665 33.763 27.7275C37.3308 23.79 41.7614 21.3718 47.0546 20.4728L47.2643 17.7463C47.3891 16.1234 48.0632 14.7876 49.2867 13.7389C50.5101 12.6902 51.9333 12.2283 53.5562 12.3531C55.1791 12.4779 56.5149 13.1521 57.5636 14.3755C58.6123 15.5989 59.0742 17.0221 58.9494 18.645L58.7397 21.3715C63.8332 23.0693 67.8419 26.1366 70.7657 30.5733C73.6895 35.0101 74.9442 39.9226 74.5298 45.3107L72.4329 72.5759L76.3279 72.8754C77.4315 72.9603 78.3279 73.4047 79.017 74.2087C79.7061 75.0126 80.0083 75.9664 79.9234 77.07C79.8385 78.1736 79.3941 79.07 78.5901 79.7591C77.7862 80.4482 76.8324 80.7503 75.7288 80.6655L21.1985 76.4716ZM47.5649 90.2536C45.4227 90.0888 43.6474 89.185 42.2392 87.5422C40.831 85.8993 40.2093 84.0067 40.374 81.8644L55.9541 83.0627C55.7894 85.2049 54.8855 86.9802 53.2427 88.3884C51.5998 89.7966 49.7072 90.4184 47.5649 90.2536Z" fill="#163036"/>
</g>
</svg>
