<svg width="19" height="25" viewBox="0 0 19 25" fill="none" xmlns="http://www.w3.org/2000/svg">
<path d="M0 8.97306C0 7.92329 0.216021 6.88101 0.650517 5.84874C1.08501 4.81646 1.70607 3.85667 2.51615 2.97436C3.32623 2.09205 4.38915 1.3747 5.70736 0.824822C7.02558 0.274941 8.48618 0 10.0891 0C12.6912 0 14.8269 0.817323 16.4961 2.44947C18.1654 4.08162 19 6.0062 19 8.22322C19 11.0726 18.293 13.4271 16.8766 15.2842C15.4602 17.1413 13.6314 18.0711 11.3902 18.0711C10.6537 18.0711 9.9615 17.8961 9.31589 17.5462C8.67028 17.1963 8.21615 16.7714 7.95349 16.2715L6.97158 20.2206C6.89057 20.5381 6.78256 20.858 6.65245 21.1829C6.52235 21.5079 6.37752 21.8203 6.22287 22.1202C6.06822 22.4202 5.91111 22.7026 5.75646 22.97C5.60181 23.2375 5.4447 23.4874 5.29005 23.7199C5.1354 23.9523 5.00039 24.1498 4.88501 24.3072C4.76964 24.4647 4.66408 24.6022 4.56589 24.7197L4.4186 24.9196C4.36951 24.9871 4.30323 25.0121 4.22222 24.9946C4.14121 24.9771 4.09212 24.9271 4.07494 24.8446C4.07494 24.8271 4.06266 24.7122 4.03811 24.4947C4.01357 24.2773 3.98902 24.0498 3.96447 23.8074C3.93992 23.5649 3.91537 23.2525 3.89083 22.8701C3.86628 22.4876 3.85891 22.1152 3.86628 21.7578C3.87364 21.4004 3.89819 21.003 3.93992 20.5706C3.98165 20.1381 4.04302 19.7382 4.12403 19.3708C4.30323 18.5885 4.90956 15.979 5.94057 11.5475C5.81047 11.2801 5.70246 10.9601 5.62145 10.5852C5.54044 10.2103 5.49871 9.90536 5.49871 9.67291L5.47416 9.29799C5.47416 8.23072 5.73928 7.34341 6.27196 6.63607C6.80465 5.92872 7.44535 5.5738 8.19897 5.5738C8.8053 5.5738 9.27416 5.77875 9.61047 6.18616C9.94677 6.59357 10.1137 7.10596 10.1137 7.72333C10.1137 8.10575 10.045 8.57815 9.90504 9.13552C9.76512 9.6929 9.58101 10.3353 9.35271 11.0601C9.12442 11.785 8.95995 12.3723 8.86176 12.8222C8.69729 13.5721 8.84212 14.2219 9.29134 14.7718C9.74057 15.3217 10.342 15.5966 11.0956 15.5966C12.3893 15.5966 13.4571 14.8518 14.2991 13.3596C15.1411 11.8674 15.5633 10.0653 15.5633 7.94828C15.5633 6.33113 15.0478 5.01142 14.0168 3.98664C12.9858 2.96186 11.5448 2.44947 9.69638 2.44947C7.63437 2.44947 5.96021 3.12432 4.67636 4.47403C3.39251 5.82374 2.74935 7.44089 2.74935 9.32298C2.74935 10.4402 3.06111 11.38 3.68217 12.1474C3.89574 12.3973 3.95956 12.6648 3.87855 12.9472C3.84664 13.0297 3.79755 13.2221 3.73127 13.5221C3.66499 13.822 3.61589 14.0145 3.58398 14.097C3.55207 14.2794 3.4686 14.4019 3.3385 14.4594C3.2084 14.5169 3.06111 14.5144 2.89664 14.4469C1.93191 14.047 1.20775 13.3596 0.72416 12.3848C0.240568 11.41 0 10.2728 0 8.97306Z" fill="#222222"/>
</svg>
