<svg width="18" height="18" viewBox="0 0 18 18" fill="none" xmlns="http://www.w3.org/2000/svg">
<path d="M6.25 17.25C4.72222 17.25 3.42361 16.7153 2.35417 15.6458C1.28472 14.5764 0.75 13.2778 0.75 11.75V6.25C0.75 4.72222 1.28472 3.42361 2.35417 2.35417C3.42361 1.28472 4.72222 0.75 6.25 0.75H11.75C13.2778 0.75 14.5764 1.28472 15.6458 2.35417C16.7153 3.42361 17.25 4.72222 17.25 6.25V11.75C17.25 13.2778 16.7153 14.5764 15.6458 15.6458C14.5764 16.7153 13.2778 17.25 11.75 17.25H6.25ZM8.08333 12.6667L13.5833 7.16667L12.3 5.88333L8.08333 10.1L6.06667 8.08333L4.78333 9.36667L8.08333 12.6667ZM6.25 15.4167H11.75C12.7583 15.4167 13.6215 15.0576 14.3396 14.3396C15.0576 13.6215 15.4167 12.7583 15.4167 11.75V6.25C15.4167 5.24167 15.0576 4.37847 14.3396 3.66042C13.6215 2.94236 12.7583 2.58333 11.75 2.58333H6.25C5.24167 2.58333 4.37847 2.94236 3.66042 3.66042C2.94236 4.37847 2.58333 5.24167 2.58333 6.25V11.75C2.58333 12.7583 2.94236 13.6215 3.66042 14.3396C4.37847 15.0576 5.24167 15.4167 6.25 15.4167Z" fill="url(#paint0_linear_1164_1840)"/>
<defs>
<linearGradient id="paint0_linear_1164_1840" x1="9" y1="0.75" x2="9" y2="17.25" gradientUnits="userSpaceOnUse">
<stop stop-color="#73BBD4"/>
<stop offset="1" stop-color="#5DE7CD"/>
</linearGradient>
</defs>
</svg>
