<svg width="39" height="24" viewBox="0 0 39 24" fill="none" xmlns="http://www.w3.org/2000/svg">
<path d="M17.416 14.9C17.416 3.74117 7.66686 0.000154495 7.66686 0.000154495L6.73841 1.80342C6.73841 1.80342 9.9218 3.26226 11.4248 6.60289C10.5699 6.32092 9.65659 6.1691 8.70824 6.1691C3.89855 6.1691 0 10.078 0 14.9C0 19.722 3.89855 23.6313 8.70824 23.6313C13.5179 23.6313 17.4165 19.7225 17.4165 14.9H17.416Z" fill="#132C31"/>
<path d="M38.2398 14.9C38.2398 3.74117 28.4906 0.000154495 28.4906 0.000154495L27.5621 1.80342C27.5621 1.80342 30.7455 3.26226 32.2485 6.60289C31.3936 6.32092 30.4803 6.1691 29.532 6.1691C24.7227 6.1691 20.8237 10.078 20.8237 14.9004C20.8237 19.7229 24.7227 23.6313 29.532 23.6313C34.3412 23.6313 38.2402 19.7225 38.2402 14.9H38.2398Z" fill="#132C31"/>
</svg>
