<svg width="39" height="24" viewBox="0 0 39 24" fill="none" xmlns="http://www.w3.org/2000/svg">
<path d="M20.8215 8.73024C20.8215 19.8877 30.5695 23.6282 30.5695 23.6282L31.4978 21.8252C31.4978 21.8252 28.3148 20.3665 26.812 17.0263C27.6668 17.3082 28.58 17.46 29.5282 17.46C34.3373 17.46 38.2354 13.5516 38.2354 8.73024C38.2354 3.90883 34.3373 0 29.5282 0C24.7191 0 20.8211 3.90839 20.8211 8.73024H20.8215Z" fill="#132C31"/>
<path d="M0.000234604 8.73024C0.000234604 19.8877 9.74817 23.6282 9.74817 23.6282L10.6765 21.8252C10.6765 21.8252 7.49352 20.3665 5.99071 17.0263C6.84551 17.3082 7.7587 17.46 8.70693 17.46C13.5156 17.46 17.4141 13.5516 17.4141 8.7298C17.4141 3.90796 13.5156 0 8.70693 0C3.89828 0 -0.000198364 3.90839 -0.000198364 8.73024H0.000234604Z" fill="#132C31"/>
</svg>
