<svg width="28" height="24" viewBox="0 0 28 24" fill="none" xmlns="http://www.w3.org/2000/svg">
<path d="M28 2.87536C26.9477 3.35605 25.8348 3.67382 24.696 3.81878C25.8974 3.06304 26.7978 1.87413 27.23 0.472594C26.101 1.18025 24.8651 1.67884 23.576 1.94668C22.7144 0.962835 21.567 0.307933 20.3137 0.084689C19.0605 -0.138554 17.7724 0.0824882 16.6513 0.71315C15.5303 1.34381 14.6397 2.34842 14.1193 3.56942C13.599 4.79041 13.4782 6.15874 13.776 7.45978C11.4932 7.33821 9.26022 6.71235 7.22212 5.62286C5.18402 4.53337 3.38638 3.00463 1.946 1.13593C1.44079 2.06486 1.17533 3.11685 1.176 4.1873C1.17421 5.1814 1.4059 6.16054 1.85046 7.03755C2.29501 7.91456 2.93863 8.66221 3.724 9.21395C2.81117 9.1878 1.91784 8.92989 1.12 8.46216V8.53587C1.12684 9.92872 1.59039 11.2763 2.43224 12.3508C3.27409 13.4252 4.44256 14.1605 5.74 14.4322C5.24056 14.5923 4.72202 14.6766 4.2 14.6828C3.83865 14.6784 3.47819 14.6439 3.122 14.5796C3.49147 15.7778 4.20647 16.8249 5.1675 17.5752C6.12854 18.3256 7.28781 18.7418 8.484 18.7661C6.46408 20.4395 3.97024 21.3529 1.4 21.3605C0.932029 21.3621 0.46443 21.3325 0 21.272C2.6242 23.056 5.68234 24.0031 8.806 23.9991C10.9616 24.0226 13.1 23.5937 15.0964 22.7374C17.0927 21.881 18.907 20.6144 20.4333 19.0115C21.9595 17.4086 23.1671 15.5015 23.9856 13.4017C24.804 11.3019 25.2169 9.0514 25.2 6.7817C25.2 6.53111 25.2 6.26577 25.2 6.00043C26.2986 5.13781 27.2461 4.08032 28 2.87536Z" fill="#222222"/>
</svg>
